<?xml version="1.0" standalone="no"?>
<!DOCTYPE svg PUBLIC "-//W3C//DTD SVG 1.1//EN" "http://www.w3.org/Graphics/SVG/1.1/DTD/svg11.dtd" >
<svg xmlns="http://www.w3.org/2000/svg">
  <metadata>Created by iconfont</metadata>
  <defs>
  <font id="iconfont" horiz-adv-x="1024">
    <font-face
      font-family="iconfont"
      font-weight="400"
      font-stretch="normal"
      units-per-em="1024"
      ascent="896"
      descent="-128"
    />
      <missing-glyph />
      
      <glyph glyph-name="shuzi" unicode="&#58900;" d="M458.1 460.1v265l107.2 107v-434.2l-107.2 62.2z m0-416.7V316.9l107.2 53.5v-433.9L458.1 43.4z"  horiz-adv-x="1024" />
      
      <glyph glyph-name="shuzi1" unicode="&#58902;" d="M257.7 724.4L383 831.8h260.1l54.8-54.9-54.8-52.4H257.7z m0-662.8V370.2L365 316.6v-255.1L311.3 8l-53.6 53.6z m24.5 323.2l100.8 58h260.1l101.2-58-101.2-49.4H383l-100.8 49.4z m46-394.1l54.8 52.4h282.5l102.4-107.3H383l-54.8 54.9z m332.3 469V706l53.7 53.5 53.7-53.5v-308.6l-107.4 62.3z"  horiz-adv-x="1024" />
      
      <glyph glyph-name="shuzi2" unicode="&#58903;" d="M268.5 831.8h363.1l54.8-54.9-54.8-52.4H371.5l-103 107.3z m0-896l103 107.3h260.1l54.8-52.4-54.8-54.9H268.5z m2.2 448l100.8 59h260.1l101.1-58-101.1-49.4H371.5l-100.8 48.4zM649 459.7V706l53.7 53.5 53.7-53.5v-308.6L649 459.7z m0-398.1v255l107.3 53.5v-308.6L702.6 8 649 61.6z"  horiz-adv-x="1024" />
      
      <glyph glyph-name="shuzi3" unicode="&#58905;" d="M257.7 397.4V831.8l107.3-107v-265.1l-107.3-62.3z m24.5-13.6l100.7 59h259.9l101.1-58-101.1-49.3H382.9l-100.7 48.3z m378 75.8V724.5l107.3 107v-434l-107.3 62.1z m0-416.9V316.3l107.3 53.5v-434L660.2 42.7z"  horiz-adv-x="1024" />
      
      <glyph glyph-name="shuzi4" unicode="&#58907;" d="M257.5 397.4V706l53.7 53.5 53.7-53.5v-246.4l-107.4-62.2z m0-461.6l102.9 107.3h282.5l54.8-52.4-54.8-54.9H257.5z m24.5 449l100.8 58h260.1l101.2-58-101.2-49.4H382.8L282 384.8z m46.1 392.1l54.8 54.9h362.5L642.9 724.4H382.8l-54.7 52.5z m332.2-715.3v255l107.3 53.5v-308.6L714 8.1l-53.7 53.5z"  horiz-adv-x="1024" />
      
      <glyph glyph-name="shuzi5" unicode="&#58908;" d="M257.5 397.4V706l53.7 53.5 53.7-53.5v-246.4l-107.4-62.2z m0-335.8V370.2l107.3-53.5v-255.1l-53.7-53.5-53.6 53.5zM282 383.8l100.8 59h260.1l101.2-58-101.2-49.4H382.8L282 383.8z m46.1 393.1l54.8 54.9h362.5L642.9 724.4H382.8l-54.7 52.5z m0-786.2l54.8 52.4H643l55.1-52.4-55.1-54.9H382.8l-54.7 54.9z m332.2 70.8V316.6l107.3 53.5v-308.6L714 8l-53.7 53.5z"  horiz-adv-x="1024" />
      
      <glyph glyph-name="shuzi6" unicode="&#58911;" d="M265.7 832.1h476.1L632.4 724.8H372.6L265.7 832.1zM651.6 460V706.4L759 814.7v-416.9L651.6 460z m0-417.2V316.6L759 370.1v-434.3l-107.4 107z"  horiz-adv-x="1024" />
      
      <glyph glyph-name="shuzi7" unicode="&#58915;" d="M257.5 397.4V706l53.7 53.5 53.7-53.5v-246.4l-107.4-62.2z m0-336v308L364.9 316v-254.6L311.2 8l-53.7 53.4z m24.5 322l100.8 59.3h260.1l101.2-58-101.2-49.4H382.8L282 383.4z m46.1 393.5l54.8 54.9H643l55.1-54.9-55.1-52.4H382.8l-54.7 52.4z m0-786.2l54.8 52.4H643l55.1-52.4-55.1-54.9H382.8l-54.7 54.9z m332.2 468.6V705.7l53.7 53.5 53.7-53.5v-308.6l-107.4 62.2z m0-397.8V316.6l107.3 53.5v-308.6L714 8l-53.7 53.5z"  horiz-adv-x="1024" />
      
      <glyph glyph-name="shuzi8" unicode="&#58916;" d="M257.5 397.4V706l53.7 53.5 53.7-53.5v-255l-107.4-53.6z m22.4-461.6l102.9 107.3h260.1l54.8-52.4-54.8-54.9h-363z m2.1 448l100.8 59h260.1l101.2-58-101.2-49.4H382.8L282 383.8z m46.1 393.1l54.8 54.9H643l55.1-54.9-55.1-52.4H382.8l-54.7 52.4zM660.3 451V706l53.7 53.5 53.7-53.5v-308.6L660.3 451z m0-389.4V307.9l107.3 62.2v-308.6L714 8.1l-53.7 53.5z"  horiz-adv-x="1024" />
      
      <glyph glyph-name="shuzi9" unicode="&#58917;" d="M257.5 397.4V706l53.7 53.5 53.7-53.5v-246.4l-107.4-62.2z m0-336v308L364.9 316v-254.6L311.2 8l-53.7 53.4z m70.6 715.5l54.8 54.9H643l55.1-54.9-55.1-52.4H382.8l-54.7 52.4z m0-786.2l54.8 52.4H643l55.1-52.4-55.1-54.9H382.8l-54.7 54.9z m332.2 468.6V705.7l53.7 53.5 53.7-53.5v-308.6l-107.4 62.2z m0-397.8V316.6l107.3 53.5v-308.6L714 8l-53.7 53.5z"  horiz-adv-x="1024" />
      
      <glyph glyph-name="gongping" unicode="&#58982;" d="M496.2 831.8h30v-703.6h-30zM531.2 123.2h-40V836.8h40v-713.6z m-30 10h20V826.8h-20v-693.6zM224.5 802.8h577v-10h-577zM354.9 379.2H94.2l130.3 432 130.4-432z m-247.2 10h233.7L224.5 776.6 107.7 389.2zM379.3 293.4H69.7v95.8h309.6v-95.8z m-299.6 10h289.6v75.8H79.7v-75.8zM930.5 379.2H669.8l130.3 432 130.4-432z m-247.2 10H917L800.2 776.6 683.3 389.2zM954.9 293.4H645.4v95.8H955v-95.8z m-299.5 10H945v75.8H655.4v-75.8zM645.1 79.6H381v52.9h264.1v-52.9z m-254.1 10h244.1v32.9H391v-32.9zM708.3-4.6H317.8V89h390.5v-93.6z m-380.5 10h370.5V79H327.8v-73.6z"  horiz-adv-x="1024" />
      
      <glyph glyph-name="xiangxia" unicode="&#58883;" d="M185.884 568.45 146.3 528.867 512.021 163.221 877.7 528.867 838.117 568.45 511.997 242.324Z"  horiz-adv-x="1024" />
      
      <glyph glyph-name="shouye" unicode="&#59083;" d="M958.400956 444.45079c-0.058328 5.760191-2.597151 11.215436-6.965645 14.97097L524.345166 826.488857c-7.498788 6.445806-18.581194 6.445806-26.079982 0L309.582871 664.3245l0 102.017488c0 11.04966-8.901741 19.532869-19.951401 19.532869l-88.034009 0c-11.048637 0-19.928888-8.482185-19.928888-19.532869l0-211.954343L71.176063 459.42176c-4.423753-3.800559-6.967692-9.341762-6.967692-15.173584l0-105.500822c0-7.819083 4.554736-14.921851 11.660574-18.183128 2.670829-1.226944 5.51562-1.824555 8.343015-1.824555 4.699022 0 9.346879 1.654686 13.048177 4.836145l53.29788 45.825698 0-324.100516c0-60.677964 49.364291-110.042255 110.042255-110.042255L764.792447-64.741257c60.677964 0 110.042255 49.364291 110.042255 110.042255L874.834702 368.973772l51.585889-44.335764c5.955642-5.119601 14.356986-6.282077 21.481244-2.965541 7.122211 3.313465 11.645225 10.488889 11.565407 18.342764L958.400956 444.45079zM221.578538 745.965915l48.095391 0 0-115.941616-48.095391-41.336454L221.578538 745.965915zM570.718333-24.725892 436.666244-24.725892 436.666244 195.357596c0 11.031241 8.976442 20.007683 20.007683 20.007683l94.0357 0c11.031241 0 20.007683-8.976442 20.007683-20.007683L570.71731-24.725892zM834.818313 400.104793l0-354.803795c0-38.612413-31.414477-70.02689-70.02689-70.02689l-154.058748 0L610.732675 195.357596c0 33.096792-26.926256 60.023048-60.023048 60.023048l-94.0357 0c-33.096792 0-60.023048-26.926256-60.023048-60.023048l0-220.084511L260.59925-24.726915c-38.612413 0-70.02689 31.414477-70.02689 70.02689L190.57236 400.104793c0 1.172709-0.121773 2.314719-0.315178 3.432169l322.113255 276.958846 322.70268-277.348726C834.921667 402.151405 834.818313 401.141402 834.818313 400.104793zM525.411451 722.052273c-7.502881 6.445806-18.587334 6.446829-26.086122-0.00307L104.223736 382.336104l0 52.726875 407.081439 349.870436 407.176606-349.9523 0.521886-51.205219L525.411451 722.052273z"  horiz-adv-x="1024" />
      
      <glyph glyph-name="bianjishuru" unicode="&#59596;" d="M686.4 672c-6.4 6.4-6.4 16 0 22.4l68 68c6.4 6.4 16 6.4 22.4 0l112.8-112.8c6.4-6.4 6.4-16 0-22.4l-68-68c-6.4-6.4-16-6.4-22.4 0L686.4 672zM384 120l372 372c5.6 5.6 4.8 15.2-1.6 20.8L641.6 626.4c-6.4 6.4-16 7.2-20.8 1.6L248 256l-56-192 192 56zM64 0v-64h896v64H64z"  horiz-adv-x="1024" />
      
      <glyph glyph-name="kaiguan-kai" unicode="&#58889;" d="M512 834.56C263.168 834.56 61.44 632.832 61.44 384s201.728-450.56 450.56-450.56h1024c248.832 0 450.56 201.728 450.56 450.56S1784.832 834.56 1536 834.56H512z m0 61.44h1024c282.76736 0 512-229.23264 512-512S1818.76736-128 1536-128H512C229.23264-128 0 101.23264 0 384S229.23264 896 512 896z m1013.76-819.2C1701.0688 76.8 1843.2 218.9312 1843.2 394.24 1843.2 569.5488 1701.0688 711.68 1525.76 711.68 1350.4512 711.68 1208.32 569.5488 1208.32 394.24 1208.32 218.9312 1350.4512 76.8 1525.76 76.8z"  horiz-adv-x="2048" />
      
      <glyph glyph-name="kaiguan-guan" unicode="&#58898;" d="M512 834.56C263.168 834.56 61.44 632.832 61.44 384s201.728-450.56 450.56-450.56h1024c248.832 0 450.56 201.728 450.56 450.56S1784.832 834.56 1536 834.56H512z m0 61.44h1024c282.76736 0 512-229.23264 512-512S1818.76736-128 1536-128H512C229.23264-128 0 101.23264 0 384S229.23264 896 512 896z m332.8-524.8C844.8 547.9424 701.52192 691.2 524.8 691.2 348.0576 691.2 204.8 547.92192 204.8 371.2c0-176.7424 143.27808-320 320-320 176.7424 0 320 143.27808 320 320z"  horiz-adv-x="2048" />
      
      <glyph glyph-name="24gl-telephone2" unicode="&#59731;" d="M944.626667 164.31333299999994a149.82 149.82 0 0 1-31.713334 66.313334L758.766667 415.6A148.926667 148.926667 0 0 1 644.046667 469.333333H379.953333a148.926667 148.926667 0 0 1-114.72-53.733333L111.086667 230.626667a149.82 149.82 0 0 1-31.713334-66.313334L58.393333 59.39999999999998A85.333333 85.333333 0 0 1 142.066667-42.66666699999996h739.866666a85.333333 85.333333 0 0 1 83.673334 102.066667z m-29.7-148.666666a42.513333 42.513333 0 0 0-32.993334-15.646667H142.066667a42.666667 42.666667 0 0 0-41.84 51.033333l20.986666 104.913334a107.013333 107.013333 0 0 0 22.666667 47.333333L298 388.286667A106.38 106.38 0 0 0 379.953333 426.666667h264.093334A106.38 106.38 0 0 0 726 388.286667L880.14 203.33333300000004a107.013333 107.013333 0 0 0 22.666667-47.333333l20.986666-104.913333a42.52 42.52 0 0 0-8.866666-35.473334zM630 348.78666699999997C598.2 371.493333 556.3 384 512 384s-86.2-12.506667-118-35.213333c-16.146667-11.533333-28.92-25.126667-37.96-40.4C346.28 291.9 341.333333 274.28 341.333333 256s4.946667-35.9 14.713334-52.386667c9.04-15.273333 21.813333-28.866667 37.96-40.4C425.8 140.506667 467.7 128 512 128s86.2 12.506667 118 35.213333c16.146667 11.533333 28.92 25.126667 37.96 40.4 9.766667 16.486667 14.713333 34.106667 14.713333 52.386667s-4.946667 35.9-14.713333 52.386667c-9.046667 15.273333-21.82 28.866667-37.96 40.4z m-24.8-150.853334c-24.62-17.58-57.72-27.266667-93.2-27.266666s-68.58 9.686667-93.193333 27.266666c-22.446667 16-34.806667 36.666667-34.806667 58.066667s12.36 42 34.806667 58.066667C443.42 331.646667 476.52 341.33333300000004 512 341.33333300000004s68.58-9.686667 93.193333-27.266666C627.64 298 640 277.41333299999997 640 256s-12.36-42.033333-34.806667-58.066667z m232.76 548.18C750.533333 787.74 634.773333 810.666667 512 810.666667s-238.533333-22.926667-325.953333-64.553334C93.586667 702.08 42.666667 641.666667 42.666667 576v-53.333333a53.393333 53.393333 0 0 1 53.333333-53.333334h192a53.393333 53.393333 0 0 1 53.333333 53.333334v53.333333c0 13.253333 16.666667 28.9 43.566667 40.846667C418.493333 631.78 463.633333 640 512 640s93.506667-8.22 127.1-23.153333C666 604.9 682.666667 589.253333 682.666667 576v-53.333333a53.393333 53.393333 0 0 1 53.333333-53.333334h192a53.393333 53.393333 0 0 1 53.333333 53.333334v53.333333c0 65.666667-50.92 126.08-143.38 170.113333zM938.666667 522.666667a10.666667 10.666667 0 0 0-10.666667-10.666667h-192a10.666667 10.666667 0 0 0-10.666667 10.666667v53.333333c0 31.733333-24.473333 60.086667-68.906666 79.833333C617.5 673.14 566.206667 682.666667 512 682.666667s-105.5-9.526667-144.426667-26.833334C323.14 636.086667 298.666667 607.733333 298.666667 576v-53.333333a10.666667 10.666667 0 0 0-10.666667-10.666667H96a10.666667 10.666667 0 0 0-10.666667 10.666667v53.333333c0 23.42 10.033333 46.593333 29.82 68.873333 20.666667 23.253333 50.666667 44.36 89.233334 62.713334C286.2 746.5466670000001 395.446667 768 512 768s225.8-21.453333 307.613333-60.413333c38.553333-18.353333 68.573333-39.46 89.233334-62.713334C928.666667 622.593333 938.666667 599.4200000000001 938.666667 576z"  horiz-adv-x="1024" />
      
      <glyph glyph-name="wode1" unicode="&#58906;" d="M64.67 384c2.03 148.27 27.78 271.04 103.07 344.26C240.96 803.55 363.73 829.3 512 831.33c148.27-2.03 271.04-27.78 344.26-103.07C931.55 655.04 957.3 532.27 959.33 384c-2.03-148.27-27.78-271.04-103.07-344.26C783.04-35.55 660.27-61.3 512-63.33c-148.27 2.03-271.04 27.78-344.26 103.07C92.45 112.96 66.7 235.73 64.67 384zM684.84 138.03c32.66 0 51.9 37.43 32.23 63.51C670.2 263.7 595.86 303.91 512 303.91S353.8 263.7 306.93 201.54c-19.67-26.08-0.43-63.51 32.23-63.51h345.68zM512 629.97c-78.24 0-141.66-63.42-141.66-141.66S433.76 346.65 512 346.65s141.66 63.42 141.66 141.66c0 78.23-63.42 141.66-141.66 141.66z m45.71-237.55c-10.45-13.85-27.01-22.82-45.7-22.82s-35.26 8.96-45.71 22.82c-4.38 5.81-0.1 14.16 7.18 14.16h77.04c7.28 0 11.57-8.35 7.19-14.16z"  horiz-adv-x="1024" />
      
      <glyph glyph-name="wodecaifu" unicode="&#58944;" d="M342.258025 287.123667h345.285347v-40.971981H342.258025zM505.541915 343.096659l149.331201 149.331202 28.97242-28.971172L534.513086 314.12424zM491.315914 314.118L341.983465 463.447953l28.971171 28.971172 149.332449-149.331202zM494.402228 3.127811V348.413158h40.971981v-345.285347zM342.258025 178.085532h345.285347v-40.971981H342.258025zM527.199781-128c-159.133027 0-288.176671 6.539542-290.111077 6.626903-4.792336 0.349441-108.701174 8.361629-177.927972 89.219826-45.764317 53.452024-65.145824 125.17483-57.557958 213.146653 26.08329 201.477813 149.036672 375.736652 300.769034 435.441177-44.329112 42.856467-71.223605 109.512376-73.045691 162.377838-1.447685 41.633423 12.392683 73.120571 38.950214 88.608305 30.626025 17.933822 72.73369 12.292842 125.224751-16.748218 114.042632 83.815968 202.351416 30.551145 234.500006 4.368015 108.576373 45.751837 147.826108 9.260192 161.616555-17.47206 29.652582-57.408197-11.905961-156.562138-69.88824-214.294816 106.704367-43.405589 253.906473-185.503358 289.649316-341.790935 20.929032-91.541115 41.184142-223.392768-24.885206-311.526831-41.096781-54.837309-110.44838-85.575654-206.157829-91.303994-83.004765-4.992017-170.926668-6.651863-251.135903-6.651863z m-218.625391 958.467295c-8.399069 0-13.603247-1.996807-16.511097-3.681613-10.732837-6.240021-16.436216-23.16296-15.625014-46.300959 1.834566-52.952822 37.75213-126.447795 88.258864-151.432841l59.405004-29.402981-64.596702-14.72645c-154.07861-35.143801-284.881939-207.168712-311.040109-408.995966-6.327382-73.632253 9.185312-133.536459 46.176158-177.054369 56.085313-65.844706 144.419056-73.120571 145.31762-73.182971 2.496009-0.11232 290.398118-14.713971 535.543601 0 81.207639 4.879697 138.827997 29.278181 171.251148 72.521529 41.271502 55.111869 46.57552 141.773287 16.648378 272.751337-38.438532 168.468099-220.647158 311.20235-297.162302 318.465735l-73.981694 6.976344 64.471901 36.940927c63.111577 36.192124 110.760381 144.344176 91.004473 182.595508-11.232039 21.677835-53.963706 17.921342-114.254792-9.984035l-15.849655-7.325785-11.64388 13.029165C597.924184 820.49574 523.168727 896.07488 410.286739 804.096964l-12.941804-10.533156-14.227249 8.73603c-36.928447 22.426637-60.316047 28.142497-74.543296 28.142497z"  horiz-adv-x="1029" />
      
      <glyph glyph-name="fanhui" unicode="&#58882;" d="M624.788992 691.952026 585.205965 731.535974 219.560038 365.814989 585.205965 0.135987 624.788992 39.719014 298.663014 365.83895Z"  horiz-adv-x="1024" />
      
      <glyph glyph-name="065chakandingdan" unicode="&#58947;" d="M949.975565-53.349813c-11.625782-11.636015-30.500665-11.636015-42.126446 0l-84.45653 84.46574c-29.102828-20.681018-64.465221-33.126468-102.864786-33.126468-98.393961 0-178.137143 79.753415-178.137143 178.12691 0 98.384751 79.743182 178.127933 178.137143 178.127933 98.356099 0 178.118724-79.744205 178.118724-178.127933 0-38.417985-12.44545-73.77219-33.127492-102.864786l84.457554-84.46574C961.620789-22.850172 961.620789-41.714821 949.975565-53.349813L949.975565-53.349813zM609.035522 423.387056c-1.677199 13.452383-12.669554 24.015973-26.569122 24.015973L201.374892 447.403029c-15.017018 0-27.202549-12.184507-27.202549-27.230178 0-15.017018 12.184507-27.211758 27.202549-27.211758l356.38685 0c-20.62576-15.286148-38.064944-34.124192-53.752228-54.440913L201.374892 338.520179c-15.017018 0-27.202549-12.175297-27.202549-27.211758 0-15.027252 12.184507-27.211758 27.202549-27.211758l270.121114 0c-15.166421-33.704636-24.891923-70.427002-24.891923-109.852944 0-88.816838 43.094494-166.939103 108.790752-216.778208l-381.222491 0c-60.142775 0-108.882849 48.749284-108.882849 108.87364L65.289494 501.405967l135.675052 0c0.74599 0 1.379417 0.381693 2.105964 0.428765L364.699678 501.834732c15.017018 0 27.220968 12.20395 27.220968 27.230178L391.920646 801.244916c0 0.642636-0.390903 1.108241-0.428765 1.724271L391.491881 828.447465l272.619004 0c60.124356 0 108.86443-48.730864 108.86443-108.85522l0-277.845029c-17.327644 3.447519-35.156708 5.393847-53.472865 5.393847-39.405475 0-76.649727-8.719592-110.465904-23.765263L609.036545 423.387056zM153.752268 176.760029l178.77057 0c16.451694 0 29.792537 13.33982 29.792537 29.800723 0 16.451694-13.340843 29.791513-29.792537 29.791513L153.752268 236.352265c-16.470113 0-29.809933-13.33982-29.809933-29.791513S137.282155 176.760029 153.752268 176.760029L153.752268 176.760029zM630.479927 713.090157 451.709357 713.090157c-16.471137 0-29.810956-13.33982-29.810956-29.791513 0-16.460904 13.33982-29.801746 29.810956-29.801746l178.77057 0c16.471137 0 29.791513 13.340843 29.791513 29.801746C660.27144 699.749314 646.951063 713.090157 630.479927 713.090157L630.479927 713.090157zM630.479927 593.903637 451.709357 593.903637c-16.471137 0-29.810956-13.340843-29.810956-29.791513 0-16.451694 13.33982-29.801746 29.810956-29.801746l178.77057 0c16.471137 0 29.791513 13.350053 29.791513 29.801746C660.27144 580.562794 646.951063 593.903637 630.479927 593.903637L630.479927 593.903637zM348.117001 548.498518 153.342945 548.498518l-0.447185-0.465604L69.164754 548.032914 347.669816 830.077591l0-73.473385c0-3.335978 0.89437-6.40999 1.90028-9.4093l-1.453095-1.443885L348.117001 548.498518 348.117001 548.498518zM302.730301 593.903637M669.662321 291.967934 669.662321 291.967934c-7.78736-3.054569-15.035438-6.875594-21.407566-11.326976-6.894014-4.713348-13.246699-9.558703-18.85544-15.418154l0 0 0 0c-5.868661-5.980201-11.086499-12.221346-15.557324-18.85544l0-0.260943c-4.564969-6.613628-8.403391-13.620206-11.440563-21.388123-2.571568-5.226025 0-11.468193 5.607718-13.880125 5.347798-2.301416 11.718903 0.251733 13.862729 5.729491 2.682086 6.232958 5.887081 12.222369 9.79918 17.84032 3.818979 5.598508 8.030907 10.815323 12.744255 15.529695 4.862751 4.592598 10.210549 9.166777 15.818267 12.994965 5.607718 3.707438 11.718903 6.875594 17.570167 9.42772 5.477758 2.422166 8.011464 8.664334 5.607718 14.253632C681.363827 291.967934 675.010119 294.520059 669.662321 291.967934L669.662321 291.967934 669.662321 291.967934zM834.478064 186.50395 834.478064 186.50395c-5.850242 0-10.694573-4.843308-10.694573-10.954493 0-13.629415-2.552126-27.556613-7.899924-40.067554l-0.260943-0.512676c-5.086855-12.231579-12.464893-23.698748-22.674419-33.628912-9.949606-10.061147-21.63167-17.579377-34.020838-22.674419-12.595876-5.469572-26.345018-8.030907-40.113603-8.030907-5.981225 0-10.694573-4.956895-10.694573-10.815323 0-5.860475 4.713348-10.703783 10.694573-10.703783 16.302291 0 32.865525 3.176342 48.422849 9.55768 15.017018 6.242168 28.897144 15.277962 41.007973 27.519774 11.979846 11.839653 20.998243 25.851784 27.127847 40.365336l0.260943 0.763386c6.483668 15.296381 9.688663 31.915897 9.688663 48.228421C845.321016 181.659619 840.607668 186.50395 834.478064 186.50395L834.478064 186.50395 834.478064 186.50395z"  horiz-adv-x="1024" />
      
      <glyph glyph-name="duilvshi1" unicode="&#58904;" d="M510.578012-52.132958c-242.927095 0-440.568694 197.634404-440.568694 440.563098 0 242.927695 197.641599 440.571692 440.568694 440.571692 242.928694 0 440.571093-197.641599 440.571093-440.571692C951.149105 145.501446 753.506706-52.132958 510.578012-52.132958zM510.578012 800.574706c-227.258319 0-412.143966-184.885648-412.143966-412.144566 0-227.25732 184.885648-412.144566 412.143966-412.144566 227.260318 0 412.144566 184.887246 412.144566 412.144566C922.722578 615.689059 737.83833 800.574706 510.578012 800.574706zM510.578012-59.243337c-246.847437 0-447.673477 200.824441-447.673477 447.673477 0 246.848037 200.82584 447.676275 447.673477 447.676275 246.849036 0 447.676275-200.82584 447.676275-447.676275C958.254288 141.581104 757.427048-59.243337 510.578012-59.243337zM510.578012 821.895651c-239.013349 0-433.462512-194.452161-433.462512-433.46551 0-239.010351 194.449163-433.458915 433.462512-433.458915 239.01135 0 433.466909 194.448564 433.466909 433.458915C944.044922 627.443489 749.594359 821.895651 510.578012 821.895651zM510.578012-30.818609c-231.178661 0-419.250148 188.076084-419.250148 419.248749 0 231.181659 188.071488 419.251747 419.250148 419.251747 231.183657 0 419.249549-188.072487 419.249549-419.251747C929.827561 157.257475 741.76167-30.818609 510.578012-30.818609zM510.578012 793.469524c-223.336578 0-405.039383-181.702406-405.039383-405.039383s181.702805-405.039383 405.039383-405.039383c223.336978 0 405.039383 181.702406 405.039383 405.039383S733.91499 793.469524 510.578012 793.469524zM468.928251 171.141062c0.284407 2.472324 0.541633 4.948645 0.854421 7.417971 0.887798 6.995257 1.78419 13.993512 2.705566 20.977777 0.647161 4.916667 1.345488 9.827337 2.019231 14.738008 0.757886 5.527253 1.557944 11.043512 2.261467 16.574762 0.569014 4.466971 0.983733 8.953929 1.531961 13.4219 0.530041 4.304082 1.160213 8.59817 1.718835 12.899254 0.544631 4.23313 1.085864 8.461263 1.569936 12.69939 0.653957 5.70813 1.270139 11.420257 1.870132 17.134383 0.344766 3.243801 0.630572 6.499593 0.938364 9.750389 0.484272 5.106538 1.093658 10.203082 1.425633 15.323611 0.349763 5.455301-1.656477 10.499881-3.145467 15.616412-0.969942 3.335738-2.033621 6.643496-2.825484 10.018208-0.616182 2.633215-0.219251 4.963635 3.825406 4.919664 14.258333-0.157893 28.523661-0.061958 42.782993-0.061958 2.769123 0 3.426677-0.754488 2.701169-3.387703-1.654878-6.023916-3.45066-12.003861-5.087551-18.031774-1.693852-6.246765-1.78479-12.541497-0.67854-18.932164 1.042293-6.027913 1.832757-12.103794 2.527286-18.178675 0.895393-7.955606 1.526965-15.940193 2.380386-23.895799 0.709519-6.635501 1.513974-13.258011 2.396375-19.868529 0.662551-4.982622 1.617903-9.927269 2.270461-14.908892 0.615583-4.702811 1.00232-9.426609 1.48999-14.142411 0.624577-6.108858 1.258147-12.21272 1.868733-18.315582 0.33977-3.408689 0.621579-6.81438 0.974339-10.218072 0.286806-2.777117 0.492666-5.578218 1.030301-8.308367 0.216853-1.078269 1.243157-1.99165 2.258469-3.523611 1.260146 4.692818 2.325423 8.692107 3.413686 12.677405 2.824085 10.335992 5.706131 20.657994 8.485247 31.009975 3.516616 13.105115 6.938296 26.240209 10.417937 39.359115 3.183841 11.997865 6.394664 23.991734 9.584502 35.990598 5.340379 20.120358 10.680758 40.241516 15.997154 60.372867 0.691531 2.604234 1.292124 5.234451 1.868733 7.864668 0.806453 3.681504 5.011602 5.871019 9.083841 4.349051 6.433638-2.402371 12.760348-5.097544 19.156012-7.602845 13.363939-5.231453 26.792635-10.311009 40.104609-15.674373 10.10315-4.07024 20.225287-8.151473 30.034637-12.866277 7.467937-3.594563 14.392242-8.31836 20.228285-14.333282 4.855708-5.00061 8.869986-10.646781 10.477896-17.562093 0.782469-3.374712 0.955352-6.906318 1.284129-10.374966 0.673543-7.05022 1.255149-14.102439 1.894715-21.156656 0.45669-5.031589 0.887398-10.066175 1.449018-15.091768 0.529641-4.695816 1.276135-9.364651 1.81377-14.059468 0.297798-2.558265 0.378743-5.139515 0.524644-7.707774 0.331775-5.536246 0.506656-11.086483 0.989329-16.603743 0.64956-7.425965 1.735823-14.817953 2.234485-22.248915 0.270816-4.02727-1.331098-7.793716-3.905352-10.910603-3.068919-3.71648-6.781402-6.6375-11.672086-7.660806-0.898391-0.184875-1.819766-0.409722-2.730149-0.409722-138.204897-0.017988-276.411793-0.051965-414.617889 0.057961-9.54253 0.009993-15.151727 5.230454-17.901863 15.305623-1.54895 5.674153-0.927771 11.349305 0.502659 16.999474 0.528642 2.084587 0.697127 4.276101 0.852422 6.433638 0.378144 5.291412 0.498062 10.608807 1.012314 15.891226 0.600593 6.166819 1.570535 12.299661 2.262066 18.46548 0.580606 5.173492 0.974739 10.369969 1.483994 15.558451 0.757886 7.731758 1.538357 15.458519 2.316429 23.18528 0.319783 3.173848 0.828438 6.332706 0.952354 9.511551 0.263821 6.824373 3.103896 12.446561 7.398384 17.591073 7.769133 9.311687 17.159366 16.494817 28.18589 21.40049 8.032554 3.575576 16.301947 6.625508 24.459816 9.923272 9.160189 3.703489 18.312584 7.424966 27.471774 11.129454 9.735399 3.930335 19.474196 7.851677 29.212594 11.77002 1.217774 0.490667 2.444343 0.962348 3.686501 1.384062 3.695095 1.257148 7.475931-0.556623 8.565593-4.413008 2.765125-9.791361 5.385948-19.628692 8.02356-29.45403 3.258791-12.137771 6.49-24.283536 9.708418-36.434298 5.468292-20.646002 10.92859-41.297001 16.370901-61.947799 4.91207-18.641361 9.772374-37.297712 14.738008-55.922884 0.351362-1.321104 1.392656-2.454336 2.113167-3.675508C468.389216 171.031137 468.660432 171.089098 468.928251 171.141062zM607.703961 532.217852c-1.237161 6.591931-2.487314 13.206046-4.238127 19.671663-2.673188 9.846724-7.324034 18.825636-12.670409 27.514745-6.791395 11.039515-14.952862 20.87085-25.041022 28.941378-10.542852 8.431683-22.259908 14.916886-35.498932 18.032174-7.65481 1.79918-15.467513 3.061524-23.279217 4.040261-6.301727 0.789465-12.533902-0.731904-18.772272-1.74082-8.523621-1.377066-16.905938-3.252195-24.485799-7.421968-6.82837-3.757452-13.700711-7.642818-19.834552-12.400992-5.949966-4.61587-11.375288-10.076168-16.305345-15.791294-4.314475-5.002009-7.871063-10.72213-11.321724-16.394285-4.956639-8.147476-9.126212-16.723062-11.261365-26.102702-1.403049-6.167818-2.550271-12.393997-3.764048-18.606385-0.976338-5.001009-2.283852-9.983631-2.693774-15.035806-0.32478-4.018276 0.421714-8.135884 0.802456-12.19713 0.583604-6.187205 0.789864-12.461951 2.001043-18.527838 2.225091-11.141446 5.567225-22.022069 10.50188-32.287509 2.911426-6.060891 6.484603-11.800399 9.715813-17.708394 6.931301-12.681402 16.141456-23.410528 27.452387-32.383044 10.910603-8.655132 22.819528-15.404955 36.525236-18.376541 5.961358-1.293523 12.08021-2.125959 18.164085-2.49271 7.251084-0.437304 14.298306 1.290725 21.314549 3.132476 15.673373 4.11561 29.090277 12.189136 40.744375 23.202669 4.92566 4.653845 9.443597 9.804752 13.700711 15.08917 9.359654 11.612527 16.099085 24.759613 21.147662 38.727743 3.685501 10.193089 6.185806 20.712957 7.177134 31.561002 0.644563 7.047222 1.513974 14.07086 2.349407 21.69669C609.379824 521.344225 608.72227 526.813516 607.703961 532.217852z"  horiz-adv-x="1024" />
      
      <glyph glyph-name="weibiaoti--" unicode="&#58897;" d="M556.8 592.1c0-22.6 18.3-41 41-41h278.5c22.6 0 41 18.3 41 41 0 22.6-18.3 41-41 41H597.7c-22.6-0.1-40.9-18.4-40.9-41zM735.4 732.8c-16-16-16-41.9 0-57.9l111.8-111.8c16-16 41.9-16 57.9 0s16 41.9 0 57.9L793.3 732.8c-15.9 16-41.9 16-57.9 0zM735.4 451.3c16-16 41.9-16 57.9 0l111.8 111.8c16 16 16 41.9 0 57.9s-41.9 16-57.9 0L735.4 509.2c-16-15.9-16-41.9 0-57.9zM744.2 11.2c-341.7 0-618.7 277-618.7 618.7 0 13.3 0.4 26.5 1.3 39.5H43.6c-0.7-13.1-1.1-26.3-1.1-39.5 0-387.5 314.2-700.6 701.7-700.6 2.9 0 5.8 0.2 8.6 0.2v81.7h-8.6zM262.1 498.3m-40.9 0a40.9 40.9 0 1 1 81.8 0 40.9 40.9 0 1 1-81.8 0ZM582.8 152.2m-40.9 0a40.9 40.9 0 1 1 81.8 0 40.9 40.9 0 1 1-81.8 0ZM886.4 81.4m-40.9 0a40.9 40.9 0 1 1 81.8 0 40.9 40.9 0 1 1-81.8 0ZM239.5 849.7c-108.8 0-197-88.2-197-197 0-18.8 2.6-37 7.6-54.2l74.5 53v1.2c0 63.5 51.5 115 115 115s115-51.5 115-115c0-57.7-42.5-105.5-98-113.7l-1.2-3.6-13.6-15.3 5.3-64.2c105.3 4 189.4 90.6 189.4 196.8 0 108.8-88.2 197-197 197zM565.4 205C441 259.8 344.8 367.5 305.9 500.1l-69-1.3-7.7-9.1-6.3-3.1c47.4-173.5 177.3-312.2 344.3-372.3l-1.8 90.7zM792.5-29.6c0-19.9-18.3-40.9-40.9-40.9-22.6 0-40.9 18.3-40.9 40.9s18.3 40.9 40.9 40.9c22.6 0 40.9-18.3 40.9-40.9zM736.5 322.2C634 322.2 549.9 244 540.4 144l83 2c9.8 53.6 56.7 94.1 113.1 94.1 63.5 0 115-51.5 115-115 0-11.2-1.6-22.1-4.6-32.3l27.3-3.9 51.5-18.8c5.1 17.5 7.8 35.9 7.8 55 0 108.9-88.2 197.1-197 197.1z"  horiz-adv-x="1024" />
      
      <glyph glyph-name="idcard-tick" unicode="&#58957;" d="M374.784 379.39200000000005c-64.512 0-117.248 52.736-117.248 117.248s52.736 117.248 117.248 117.248S492.032 561.152 492.032 496.64s-52.736-117.248-117.248-117.248z m0 183.808c-36.864 0-66.56-30.208-66.56-66.56 0-36.864 30.208-66.56 66.56-66.56s66.56 30.208 66.56 66.56-29.696 66.56-66.56 66.56zM510.976 166.39999999999998H238.592c-13.824 0-25.088 11.264-25.088 25.088v75.776c0 89.088 72.704 161.28 161.28 161.28s161.28-72.704 161.28-161.28v-75.776c0.512-13.824-11.264-25.088-25.088-25.088z m-247.296 50.688H486.4v50.688c0 61.44-50.176 111.616-111.616 111.616s-111.616-50.176-111.616-111.616l0.512-50.688z m502.784 293.888h-183.808c-14.848 0-26.624 12.288-26.624 26.624 0 14.336 12.288 26.624 26.624 26.624h183.808c14.848 0 26.624-12.288 26.624-26.624 0-14.336-11.264-26.624-26.624-26.624z m0-140.288h-153.6c-14.848 0-26.624 12.288-26.624 26.624 0 14.848 12.288 26.624 26.624 26.624h153.6c14.848 0 26.624-12.288 26.624-26.624 0.512-14.848-11.264-26.624-26.624-26.624zM758.784 56.32000000000005c-7.168 0-14.336 2.56-19.968 8.192l-99.328 98.816c-11.264 11.264-11.264 28.672 0 39.936s28.672 11.264 39.936 0l78.848-78.848 140.288 140.288c11.264 11.264 28.672 11.264 39.936 0s11.264-28.672 0-39.936L778.24 64.51199999999994c-5.12-5.632-12.288-8.192-19.456-8.192zM893.952 724.48H609.28v27.136c0 26.624-21.504 48.128-48.128 48.128H462.848c-26.624 0-48.128-21.504-48.128-48.128v-27.136H130.048c-15.36 0-28.16-12.8-28.16-28.16v-625.152c0-15.36 12.8-28.16 28.16-28.16h463.36c12.8 0 24.064 10.752 24.064 24.064V81.91999999999996c0 12.8-10.752 23.552-24.064 23.552H163.84V667.648h259.584c14.848-30.208 46.08-51.2 81.92-51.2h12.8c35.84 0 66.56 20.992 81.92 51.2H860.16v-301.568c0-12.8 10.752-23.552 23.552-24.064h14.848c13.312 0 24.064 10.752 24.064 24.064V696.3199999999999c-0.512 15.36-13.312 28.16-28.672 28.16zM552.96 707.5840000000001c0-18.944-15.36-34.304-34.304-34.304h-12.8c-18.944 0-34.304 15.36-34.304 34.304v35.84H552.96v-35.84z"  horiz-adv-x="1024" />
      
      <glyph glyph-name="guanbi" unicode="&#58914;" d="M511.333 768.667c51.868 0 102.15-10.144 149.451-30.15 45.719-19.337 86.792-47.034 122.078-82.321 35.287-35.286 62.983-76.359 82.321-122.078 20.006-47.3 30.15-97.583 30.15-149.451s-10.144-102.15-30.15-149.451c-19.337-45.719-47.034-86.792-82.321-122.078-35.286-35.287-76.359-62.983-122.078-82.321-47.3-20.006-97.583-30.15-149.451-30.15s-102.15 10.144-149.451 30.15c-45.719 19.337-86.792 47.034-122.078 82.321-35.287 35.286-62.983 76.359-82.321 122.078-20.006 47.3-30.15 97.583-30.15 149.451s10.144 102.15 30.15 149.451c19.337 45.719 47.034 86.792 82.321 122.078 35.286 35.287 76.359 62.983 122.078 82.321 47.301 20.006 97.583 30.15 149.451 30.15m0 64c-247.424 0-448-200.576-448-448s200.576-448 448-448 448 200.576 448 448-200.576 448-448 448zM557.254 384l147.373 147.373c12.497 12.497 12.497 32.758 0 45.255-12.496 12.497-32.758 12.497-45.254 0L512 429.254 364.627 576.627c-12.497 12.497-32.758 12.497-45.255 0s-12.497-32.758 0-45.255L466.746 384 319.373 236.627c-12.497-12.496-12.497-32.758 0-45.254C325.621 185.124 333.811 182 342 182s16.379 3.124 22.627 9.373L512 338.746l147.373-147.373C665.621 185.124 673.811 182 682 182s16.379 3.124 22.627 9.373c12.497 12.496 12.497 32.758 0 45.254L557.254 384z"  horiz-adv-x="1024" />
      
      <glyph glyph-name="xingshi" unicode="&#59028;" d="M892.9 671.5c-1.4 6.6-5.5 12.3-11.2 15.9-5.7 3.6-12.7 4.7-19.2 3-28.4-7-56.5-10.6-83.6-10.6-94.7 0-175.6 39.9-247.5 122.1-4.7 5.4-11.6 8.5-18.8 8.5-7.2 0-14.1-3.1-18.8-8.5-64.9-74.2-173.1-122.1-275.6-122.1-18.4 0-37.6 1.8-58.7 5.4-13.3 2.3-25.9-6.4-28.7-19.6-8.7-41.7-13.1-84.4-13.1-127.1 0-125.6 37.3-246.7 107.9-350 34-49.8 75-94.3 121.8-132.4 47.2-38.4 99.6-69.5 155.6-92.6 3-1.3 6.3-1.9 9.5-1.9s6.5 0.6 9.5 1.9c56 23.1 108.4 54.2 155.6 92.6 46.8 38.1 87.8 82.6 121.8 132.4 70.6 103.3 107.9 224.4 107.9 350 0 44.5-4.8 89.2-14.4 133zM512.5 13.899999999999977c-209.8 90.7-344.8 295.5-344.8 524.7 0 31.4 2.6 62.9 7.7 93.9 14.8-1.7 28.9-2.6 42.7-2.6 57.9 0 118 13.2 173.8 38.2 45.9 20.6 87 48.2 120.4 80.8 33-34 68.4-60.9 105.5-80.2 49.6-25.8 103.8-38.9 161.1-38.9 22.9 0 46.4 2.2 70 6.5 5.6-32.4 8.5-65.2 8.5-97.8-0.1-229.1-135.1-434-344.9-524.6zM395.7 354c-13.7 2.1-23.1-2.6-28.4-14.2-10.5-39.9-22.1-77.2-34.7-111.9-3.2-14.7 1.6-24.7 14.2-29.9 14.7-3.2 24.1 2.1 28.4 15.8 13.6 42 25.2 78.8 34.7 110.3 2.1 13.6-2.7 23.6-14.2 29.9zM359.5 461.2c-10.5 8.4-20 7.9-28.4-1.6-8.4-9.5-7.9-18.9 1.6-28.4 14.7-12.6 28.9-25.2 42.5-37.8 11.5-8.4 22.1-7.9 31.5 1.6 7.3 11.5 6.3 22.1-3.2 31.5-13.6 11.6-28.3 23.1-44 34.7zM691.9 402.9H584.8v70.9H673c11.5 1 17.8 7.3 18.9 18.9-1.1 11.5-7.4 17.8-18.9 18.9h-88.2V562c-1.1 13.6-8.4 21-22.1 22.1-12.6-1.1-19.4-8.4-20.5-22.1v-50.4h-86.7c-11.6-1.1-17.9-7.4-18.9-18.9 1-11.6 7.3-17.9 18.9-18.9h86.7v-70.9h-104c-10.5-1.1-16.8-7.4-18.9-18.9 2.1-11.6 8.4-17.9 18.9-18.9h83.5c-21-34.7-44.1-67.7-69.3-99.3-9.5-12.6-12.6-23.1-9.5-31.5 7.3-12.6 18.9-18.4 34.7-17.3 47.3 3.2 102.9 6.3 167 9.5 4.2-6.3 7.9-12.6 11-18.9 8.4-11.5 18.9-13.6 31.5-6.3 10.5 7.4 12.6 17.3 6.3 29.9-22.1 30.5-44.7 60.9-67.7 91.4-8.4 9.5-18.4 12.1-29.9 7.9-9.5-7.4-11.6-16.3-6.3-26.8 8.4-11.6 17.8-25.8 28.4-42.5-38.9-1.1-77.2-2.6-115-4.7-3.2 1-4.2 3.2-3.2 6.3 25.2 30.5 48.8 62.5 70.9 96.1 2.1 1 3.2 3.2 3.2 6.3H692c11.5 1 17.8 7.3 18.9 18.9-1.2 11.4-7.5 17.7-19 18.8zM416.2 527.3c-13.7 12.6-28.4 24.7-44.1 36.2-9.5 7.3-19.4 6.8-29.9-1.6-6.3-9.5-5.8-18.4 1.6-26.8 14.7-12.6 29.4-25.8 44.1-39.4 10.5-8.4 20.5-7.9 29.9 1.6 8.4 10.6 7.8 20.6-1.6 30z"  horiz-adv-x="1024" />
      
      <glyph glyph-name="xuanzhong" unicode="&#58880;" d="M820.113403 691.760362c-169.888272 169.918971-446.339558 169.918971-616.22783 0-169.921018-169.890318-169.921018-446.339558 0-616.22783 169.888272-169.921018 446.339558-169.921018 616.22783 0C990.035444 245.42080499999997 990.035444 521.869021 820.113403 691.760362zM769.710456 497.188922L477.206566 185.78763600000002c-1.832741-1.704828-3.759627-2.842745-5.183046-3.664459-1.579985-1.043772-2.685155-1.928932-4.297886-2.592035-3.697205-1.579985-7.614421-2.368954-11.722996-2.368954-3.76065 0-7.458879 0.694825-11.06194 2.085498l-3.476171 2.02103c-1.865487 0.980327-3.886517 2.023076-5.815449 3.729951l0 0.063445c-0.125867 0.094144-0.252757 0.220011-0.3776 0.346901l-0.980327 0.946558L268.257673 349.957673c-5.752004 5.626137-9.005095 13.20986-9.069563 21.268396-0.030699 8.119935 3.034103 15.737426 8.721639 21.519106 11.376095 11.502985 31.318286 11.598152 42.819225 0.252757l144.45195-142.30096 270.475178 287.952224c10.965749 11.661597 31.126928 12.294001 42.757826 1.359974 5.909593-5.593392 9.322319-13.115716 9.543354-21.23565C778.178315 510.714983 775.271102 503.03507 769.710456 497.188922z"  horiz-adv-x="1024" />
      
      <glyph glyph-name="yuanxingweixuanzhong" unicode="&#59183;" d="M512-64c-247.039484 0-448 200.960516-448 448S264.960516 832 512 832 960 631.039484 960 384 759.039484-64 512-64zM512 768c-211.744443 0-384-172.255557-384-384s172.255557-384 384-384 384 172.255557 384 384S723.744443 768 512 768z"  horiz-adv-x="1024" />
      
      <glyph glyph-name="tianchongxing-" unicode="&#58931;" d="M556.8 592.1c0-22.6 18.3-41 41-41h278.5c22.6 0 41 18.3 41 41 0 22.6-18.3 41-41 41H597.7c-22.6-0.1-40.9-18.4-40.9-41zM735.4 732.8c-16-16-16-41.9 0-57.9l111.8-111.8c16-16 41.9-16 57.9 0s16 41.9 0 57.9L793.3 732.8c-15.9 16-41.9 16-57.9 0zM735.4 451.3c16-16 41.9-16 57.9 0l111.8 111.8c16 16 16 41.9 0 57.9s-41.9 16-57.9 0L735.4 509.2c-16-15.9-16-41.9 0-57.9zM922 61.39999999999998c1.8 3.2 3.2 6.7 4.1 10.4 4.8 17 7.4 34.9 7.4 53.5 0 108.8-88.2 197-197 197-92.3 0-169.8-63.6-191.2-149.3C423.5 227.39999999999998 329 332.6 289.4 462.2c84.6 22.1 147.1 99 147.1 190.6v0.9 0.9c0 108.1-87.7 195.8-195.8 195.8-27.3 0-53.3-5.6-76.9-15.7-71.2-29.8-121.3-100-121.3-182 0-2.8 0.1-5.6 0.2-8.4-0.1-4.8-0.2-9.6-0.2-14.4 0-387.5 314.2-700.6 701.7-700.6 2.9 0 5.8 0.2 8.6 0.2 3.4 0.1 6.8 0.7 9.9 1.7 74.4 9.8 135.5 61.3 159.3 130.2z"  horiz-adv-x="1024" />
      
      <glyph glyph-name="-telephone2" unicode="&#59757;" d="M944.626667 164.31333299999994a149.82 149.82 0 0 1-31.713334 66.313334L758.766667 415.6A148.926667 148.926667 0 0 1 644.046667 469.333333H379.953333a148.926667 148.926667 0 0 1-114.72-53.733333L111.086667 230.626667a149.82 149.82 0 0 1-31.713334-66.313334L58.393333 59.39999999999998A85.333333 85.333333 0 0 1 142.066667-42.66666699999996h739.866666a85.333333 85.333333 0 0 1 83.673334 102.066667zM512 170.66666699999996c-94.253333 0-170.666667 47.753333-170.666667 106.666666s76.413333 106.666667 170.666667 106.666667 170.666667-47.753333 170.666667-106.666667-76.413333-106.666667-170.666667-106.666666z m469.333333 405.333333v-53.333333a53.393333 53.393333 0 0 0-53.333333-53.333334h-192a53.393333 53.393333 0 0 0-53.333333 53.333334v53.333333c0 13.253333-16.666667 28.9-43.566667 40.846667C605.506667 631.78 560.366667 640 512 640s-93.506667-8.22-127.1-23.153333C358 604.9 341.333333 589.253333 341.333333 576v-53.333333a53.393333 53.393333 0 0 0-53.333333-53.333334H96a53.393333 53.393333 0 0 0-53.333333 53.333334v53.333333c0 65.666667 50.92 126.08 143.38 170.113333C273.466667 787.74 389.226667 810.666667 512 810.666667s238.533333-22.926667 325.953333-64.553334C930.413333 702.08 981.333333 641.666667 981.333333 576z"  horiz-adv-x="1024" />
      
      <glyph glyph-name="wodedingdan" unicode="&#58901;" d="M884.363636-81.45454500000005H139.636364V802.909091h744.727272v-884.363636zM186.181818-34.90909099999999h651.636364V756.363636H186.181818v-791.272727zM279.272727 430.545455h465.454546v-46.545455H279.272727zM279.272727 290.909091h465.454546v-46.545455H279.272727zM279.272727 151.27272700000003h244.363637v-46.545454H279.272727zM279.272727 570.181818h465.454546v-46.545454H279.272727zM349.090909 849.454545h325.818182v-139.636363H349.090909zM698.181818 686.545455H325.818182V872.727273h372.363636v-186.181818zM372.363636 733.090909h279.272728V826.181818H372.363636v-93.090909z"  horiz-adv-x="1024" />
      
      <glyph glyph-name="call" unicode="&#59727;" d="M705.74 291.126667a53.4 53.4 0 0 1-75.426667 0l-37.713333-37.713334c-21.333333-21.333333-90.413333-0.1-150.846667 60.34S360.046667 443.24 381.413333 464.6l0.046667 0.046667 37.666667 37.666666a53.4 53.4 0 0 1 0 75.426667l-165.94 165.933333a53.393333 53.393333 0 0 1-75.42 0l-37.713334-37.713333c-27.866667-27.866667-44.84-64.52-50.46-108.946667-5.213333-41.206667-0.406667-87.42 14.28-137.333333C133.333333 359.41333299999997 199.773333 254 290.9 162.89999999999998S487.42 5.333333000000039 587.653333-24.126666999999998c36.926667-10.86 71.813333-16.32 104.146667-16.32a264.333333 264.333333 0 0 1 33.213333 2.04c44.426667 5.62 81.08 22.593333 108.946667 50.46l37.713333 37.713334a53.393333 53.393333 0 0 1 0 75.42z m135.76-211.193334l-37.706667-37.713333c-42.58-42.573333-115.06-51.6-204.1-25.413333-93.506667 27.5-192.453333 90.1-278.62 176.266666s-148.766667 185.113333-176.266666 278.62c-26.186667 89.033333-17.16 161.52 25.413333 204.1l37.713333 37.706667a10.666667 10.666667 0 0 0 15.086667 0l165.933333-165.933333a10.666667 10.666667 0 0 0 0-15.086667l-37.713333-37.706667C329.113333 472.666667 324.666667 437.18 338.766667 394.926667c12.426667-37.273333 38.286667-76.813333 72.813333-111.333334s74.073333-60.386667 111.333333-72.813333c16.213333-5.406667 31.42-8.08 45.26-8.08 22.233333 0 40.946667 6.913333 54.586667 20.553333l37.706667 37.713334a10.666667 10.666667 0 0 0 15.086666 0l165.933334-165.933334a10.666667 10.666667 0 0 0 0.013333-15.1zM576 661.333333a21.333333 21.333333 0 0 0 21.333333 21.333334 213.333333 213.333333 0 0 0 213.333334-213.333334 21.333333 21.333333 0 0 0-42.666667 0c0 94.106667-76.56 170.666667-170.666667 170.666667a21.333333 21.333333 0 0 0-21.333333 21.333333z m0-128a21.333333 21.333333 0 0 0 21.333333 21.333334 85.426667 85.426667 0 0 0 85.333334-85.333334 21.333333 21.333333 0 0 0-42.666667 0 42.713333 42.713333 0 0 1-42.666667 42.666667 21.333333 21.333333 0 0 0-21.333333 21.333333z m362.666667-64a21.333333 21.333333 0 0 0-42.666667 0c0 164.666667-134 298.666667-298.666667 298.666667a21.333333 21.333333 0 0 0 0 42.666667 341.073333 341.073333 0 0 0 341.333334-341.333334z"  horiz-adv-x="1024" />
      
      <glyph glyph-name="tililaodong01" unicode="&#59409;" d="M586.133333 653.568c66.901333 0 121.28 54.378667 121.28 121.237333C707.349333 841.621333 652.906667 896 586.133333 896c-66.816 0-121.194667-54.378667-121.194667-121.216C464.917333 707.9466669999999 519.296 653.568 586.133333 653.568zM586.133333 853.290667c43.306667 0 78.528-35.221333 78.528-78.485333 0-43.285333-35.136-78.506667-78.528-78.506667-43.221333 0-78.464 35.221333-78.464 78.506667C507.648 818.069333 542.826667 853.290667 586.133333 853.290667zM885.674667-36.39466700000003l-203.264 293.653333 0 141.504 38.464-38.464c1.621333-1.664 3.498667-3.008 5.568-4.010667l59.541333-29.781333c8.469333-4.245333 17.749333-6.421333 27.093333-6.421333 7.872 0 15.68 1.514667 23.082667 4.629333 16.277333 6.698667 28.693333 20.096 34.218667 36.714667 9.344 28.437333-3.584 59.904-30.293333 73.301333l-64.448 32.213333-96.704 145.066667c-0.448 0.618667-1.045333 0.938667-1.472 1.493333-0.917333 1.109333-1.877333 2.048-2.986667 2.965333-1.130667 0.896-2.218667 1.664-3.434667 2.325333-1.152 0.618667-2.282667 1.066667-3.541333 1.450667-1.429333 0.448-2.901333 0.746667-4.373333 0.896-0.682667 0.064-1.322667 0.405333-1.984 0.405333l-149.781333 0c-4.992 0-9.834667-1.749333-13.674667-4.928l-149.781333-124.842667c-2.24-1.898667-4.074667-4.202667-5.418667-6.869333l-63.125333-77.738667c-2.986667 1.088-5.845333 1.706667-8.896 1.472-11.861333-0.597333-22.805333-5.802667-30.613333-14.336l-24.832 18.666667c-7.104 5.354667-15.872 7.616-24.682667 6.421333-8.832-1.237333-16.64-5.824-22.016-12.949333l-76.224-101.205333c-5.397333-7.125333-7.68-15.936-6.4-24.810667 1.258667-8.832 5.888-16.618667 12.949333-21.888l164.096-123.584c5.866667-4.458667 12.885333-6.805333 20.117333-6.805333 1.536 0 3.093333 0.106667 4.629333 0.32 8.853333 1.237333 16.661333 5.802667 22.058667 12.949333l76.309333 101.269333c11.008 14.72 8 35.669333-6.613333 46.592l-24.896 18.794667c5.354667 8.810667 7.509333 19.114667 6.037333 29.610667-0.362667 2.368-1.109333 4.48-2.112 6.506667l68.416 64.874667 63.36 31.68 0-186.666667-43.968-131.904L324.053333 122.17600000000004c-32.405333 0-58.794667-26.304-58.794667-58.816 0-32.448 26.368-58.858667 58.794667-58.858667l212.16 0c6.72 0 13.077333 3.221333 17.088 8.597333l62.890667 83.818667 177.472-204.8C804.714667-120.68266700000004 820.757333-128 837.674667-128c15.594667 0 30.293333 6.037333 41.322667 17.109333C898.922667-90.96533299999999 901.76-59.648000000000025 885.674667-36.39466700000003zM682.368 529.493333l60.8-91.114667c2.005333-3.050667 4.885333-5.546667 8.170667-7.210667l69.589333-34.730667c7.744-3.925333 11.626667-13.162667 8.789333-21.461333-2.218667-6.656-7.210667-9.578667-10.005333-10.730667-2.730667-1.28-8.426667-2.645333-14.677333 0.469333l-56.448 28.16-66.218667 66.197333L682.368 529.493333zM281.002667 174.52800000000002l-149.333333 112.448 65.002667 86.336 51.306667-38.613333 8.170667 10.432c3.904-12.714667 12.714667-23.914667 25.514667-30.357333 6.549333-3.285333 13.696-4.714667 20.885333-4.821333l-7.872-10.432 51.306667-38.72L281.002667 174.52800000000002zM525.525333 47.23199999999997l-201.493333 0c-8.874667 0-16.064 7.210667-16.064 16.085333s7.189333 16.064 16.064 16.064l137.301333 0c9.194667 0 17.365333 5.930667 20.266667 14.677333l38.08 114.218667 67.882667-78.314667L525.525333 47.23199999999997zM848.768-80.70399999999995c-2.986667-2.944-6.869333-4.565333-11.114667-4.565333-2.666667 0-7.68 0.704-11.818667 5.397333L532.608 258.53866700000003l-0.021333 216.746667c0 7.424-3.861333 14.293333-10.133333 18.176-6.293333 3.882667-14.165333 4.245333-20.778667 0.938667l-99.84-49.941333c-3.648-1.813333-6.677333-4.650667-8.768-8.128l-82.432-80.448c-2.56-4.288-6.997333-4.373333-9.92-2.965333-3.754667 1.856-5.290667 6.506667-3.413333 10.24l81.28 98.517333 140.394667 116.992 120.64 0 0-328.106667c0-4.330667 1.322667-8.576 3.818667-12.16l207.125333-299.114667C854.826667-66.96533299999999 854.101333-75.37066700000003 848.768-80.70399999999995z"  horiz-adv-x="1024" />
      
      <glyph glyph-name="pingjia1" unicode="&#58933;" d="M511.564 868.994L465.06 783.272l-118.876-219.136L104.712 516.9839999999999l-92.922-18.146 64.156-69.624 168.538-182.904-30.616-248.844-11.776-95.714 87.048 41.502 222.42 106.042 222.42-106.042 87.048-41.502-11.776 95.714L778.64 246.308l168.54 182.906 64.154 69.622-92.92 18.146-241.48 47.152L558.064 783.27 511.564 868.994 511.564 868.994z"  horiz-adv-x="1024" />
      
      <glyph glyph-name="zhiyezigexinxipiliangchaxun" unicode="&#58888;" d="M84.33271 664.028764l849.28684 0c38.603203 0 38.603203-38.445614 38.603203-38.445614L972.222753 10.366348000000016c0-38.4538-38.603203-38.4538-38.603203-38.4538L933.61955 10.366348000000016 933.61955 548.6755499999999 84.33271 548.6755499999999 84.33271 10.366348000000016l849.28684 0 0-38.4538L84.33271-28.087452999999982c0 0-38.606273 0-38.606273 38.4538L45.726437 625.583151C45.726437 625.583151 45.726437 664.028764 84.33271 664.028764L84.33271 664.028764 84.33271 664.028764zM586.181513 625.583151L431.767678 625.583151l0-38.4538 154.413835 0L586.181513 625.583151 586.181513 625.583151 586.181513 625.583151zM794.350646 345.79076999999995c0 32.597419-27.789926 59.006905-62.055334 59.006905-34.275641 0-62.055334-26.409486-62.055334-59.006905 0-32.596396 27.779693-59.009975 62.055334-59.009975C766.556627 286.780795 794.350646 313.19437400000004 794.350646 345.79076999999995L794.350646 345.79076999999995 794.350646 345.79076999999995zM822.972521 275.60322099999996l-16.72287 0L739.246631 142.89473299999997l16.845667 116.052133-25.080212 27.757181-25.076118-27.757181 16.714683-116.577089-66.880223 133.226281-16.714683 0c-33.441647 0-33.441647-17.376763-33.441647-49.958832l0-99.915617 250.80007 0 0 99.915617C856.414167 258.219295 856.414167 275.60322099999996 822.972521 275.60322099999996L822.972521 275.60322099999996 822.972521 275.60322099999996zM200.140273 433.328475l347.438037 0 0-38.4538L200.140273 394.874675 200.140273 433.328475 200.140273 433.328475 200.140273 433.328475zM200.140273 317.97219099999995l270.232654 0 0-38.4538L200.140273 279.51839099999995 200.140273 317.97219099999995 200.140273 317.97219099999995 200.140273 317.97219099999995zM200.140273 202.62l193.021132 0 0-38.452777L200.140273 164.16722300000004 200.140273 202.62 200.140273 202.62 200.140273 202.62zM586.181513 664.028764L431.767678 664.028764l0 76.902484c0 0 0 38.4538 38.606273 38.4538l77.205383 0c38.603203 0 38.603203-38.4538 38.603203-38.4538L586.182536 664.028764 586.181513 664.028764 586.181513 664.028764zM508.972037 747.341239c-17.766642 0-32.166607-14.34266-32.166607-32.042787 0-17.696034 14.399965-32.041764 32.166607-32.041764 17.766642 0 32.17377 14.34573 32.17377 32.041764C541.145807 732.9985790000001 526.738679 747.341239 508.972037 747.341239L508.972037 747.341239 508.972037 747.341239zM508.972037 747.341239"  horiz-adv-x="1024" />
      
      <glyph glyph-name="falvshengmingfalv" unicode="&#58892;" d="M511.034511 763.118574c85.158519-71.912843 211.894991-155.165965 317.351811-189.163267l0-75.074859c-5.618974-198.600197-145.651264-407.207305-317.351811-497.987868-171.702594 90.781586-311.737954 299.387671-317.368184 497.987868l0 75.074859C299.136449 607.951585 425.873945 691.205731 511.034511 763.118574M511.008928 834.678376c-8.833179 0-17.664312-3.236718-24.642237-9.735735-88.019683-82.098833-193.45399-142.368498-308.032562-176.141696-23.585161-6.950296-39.857776-28.955472-39.857776-53.970192l0-97.130178c6.473435-245.14528 151.727657-464.266859 372.558158-562.04786 220.828454 97.781 366.082676 316.903603 372.555088 562.04786l0 97.130178c0 25.040303-16.259312 46.99636-39.870056 53.970192-114.568339 33.772174-219.978087 94.018304-307.99777 176.116113C528.724405 831.417099 519.866666 834.678376 511.008928 834.678376L511.008928 834.678376zM384.132262 408.14491c-28.932959 19.747763-45.925982 29.393447-75.319429 41.333384l15.156188 34.903951c28.474518-11.022031 56.949037-23.422456 81.749886-36.282345L384.132262 408.14491zM360.709807 199.177598c-16.074094 13.319353-29.851888 22.50455-45.467541 32.149211 11.94096 21.585621 23.422456 48.223305 36.282345 81.749886 9.644661 24.799826 15.156188 43.171242 19.289322 69.808926 10.562567-9.18622 22.50455-15.156188 37.20025-20.667715C374.947066 264.85236599999996 364.84294 228.570022 360.709807 199.177598zM400.206356 511.019928c-16.074094 22.045085-40.874943 44.548612-62.001099 58.785871l26.178219 29.851888c26.178219-18.829857 44.548612-33.526581 67.511603-54.652737L400.206356 511.019928zM578.401828 430.188972c62.001099 0 102.875019 1.378393 137.320529 4.592598l0-41.793872c-35.82288 3.216251-78.994122 4.592598-145.587819 4.592598-67.971068 0-110.223381-1.37737-146.505725-4.592598l0 41.793872c30.770817-2.75474 65.215304-4.133134 116.194372-4.592598l0 82.20935c-37.659715-0.459464-66.134233-1.836835-88.63776-4.592598l0 40.415478c22.503527-2.755764 50.978045-4.134157 88.63776-4.592598 0 42.252313-2.296299 63.837934-4.592598 75.319429 13.319353-1.836835 32.607652-3.215228 48.682769-2.755764 11.94096 0 11.481496-3.215228 3.673669-9.644661-5.511527-4.592598-9.185196-15.615653-9.185196-25.718755l0-37.201274c48.681746 0 84.96409 1.378393 110.682845 4.592598l0-40.415478c-25.718755 3.215228-62.001099 4.592598-110.682845 4.592598L578.401828 430.188972zM585.750189 329.149764l32.607652 16.991999c26.637684-34.444487 58.326407-80.371492 82.208327-118.031207l-41.334407-23.88192c-5.969968 13.319353-12.399401 25.718755-18.828834 36.740786l-124.920104-17.452487c-32.149211-4.592598-49.601698-8.725732-63.379493-14.6957-3.674693 12.399401-11.022031 27.096125-18.370393 39.037085 23.422456 12.399401 50.51858 47.304376 96.90505 146.966213 11.022031-7.348362 25.718755-15.615653 38.119179-21.12718 11.022031-5.052063 11.022031-8.267291 0.917906-11.481496-7.807826-2.296299-14.696724-10.104125-82.20935-105.631806 43.171242 2.296299 92.312452 7.348362 136.402623 14.237259C611.468944 292.40897900000004 598.610078 312.15776500000004 585.750189 329.149764z"  horiz-adv-x="1024" />
      
      <glyph glyph-name="iconfontzhizuobiaozhun06" unicode="&#58890;" d="M880.589264-64.19481199999996l-61.817927 0c-33.635051 0-60.998259 27.346835-60.998259 60.959374l0 82.458013L266.95347 79.222575l0-82.458013c0-33.613562-27.339672-60.959374-60.945047-60.959374l-61.905932 0c-33.619702 0-60.972677 27.346835-60.972677 60.959374l0 222.741014c0 2.523473 0.188288 5.114484 0.569982 7.849782-0.3776 3.77907-0.569982 7.488555-0.569982 11.063987l0.046049 1.37123 11.368932 169.322383c0.064468 17.397229 2.524496 33.993209 7.334036 49.600675l-4.455475 0.763386c-22.851451 1.057075-41.119513 19.996426-41.119513 43.125193l0 19.708877c0 23.818475 19.34765 43.196825 43.13031 43.196825l76.91374 0 32.727379 156.941402c6.055926 31.377638 20.570501 58.173934 41.97909 77.499072 23.370267 21.096481 54.039777 32.247448 88.691995 32.247448l345.269651 0c32.4429 0 61.509912-9.522887 84.060511-27.539216 23.935132-19.123546 40.030715-47.578622 46.557362-82.301448l32.717146-156.847258 76.172867 0c23.804149 0 43.169195-19.367093 43.169195-43.171242l0-19.733437c0-23.133883-18.290575-42.077328-41.169655-43.125193l-3.734044-0.635473c4.848425-15.694447 7.326872-32.330336 7.393387-49.727565l11.431354-170.006975 0-0.687662c0-3.370771-0.192382-6.924713-0.603751-11.008728 0.334621-2.310625 0.603751-4.991688 0.603751-7.906064l0-222.741014C941.61413-36.849000000000046 914.238642-64.19481199999996 880.589264-64.19481199999996zM226.021222 120.15482299999996l572.684104 0 0-123.390261c0-11.04352 9.002025-20.027126 20.066011-20.027126l61.817927 0c11.079336 0 20.092617 8.983605 20.092617 20.027126l0 222.741014c0 1.069355-0.257873 2.603291-0.451278 3.664459l-0.552585 3.021823 0.35918 3.049452c0.405229 3.436262 0.610914 6.175653 0.641613 8.55177l-11.426237 169.925111 0 0.687662c0 21.069875-4.304026 39.720653-13.158694 57.020668l-12.70537 24.821315 59.409065 10.115382 1.729387 0c1.254573 0 2.236947 0.983397 2.236947 2.238994l0 19.733437c0 1.214664-1.02433 2.238994-2.236947 2.238994l-81.427544 0c-0.112564-0.029676-0.449231-0.137123-1.034563-0.453325l-24.164353-13.072737-42.457997 203.575512c-4.738931 25.38925-15.47546 44.921095-31.911804 58.052161-15.219633 12.159948-35.452443 18.58631-58.511625 18.58631l-345.269651 0c-24.702612 0-45.314045-7.300266-61.265342-21.698185-14.782681-13.344936-24.89397-32.362059-29.237905-54.993498l-0.063445-0.319272-42.577724-204.171076-24.440645 13.963013c-0.825808 0.471744-1.200338 0.534166-1.204431 0.535189l-81.522712-0.004093c-1.192152 0-2.198062-1.037632-2.198062-2.264577l0-19.708877c0-1.234107 0.986467-2.238994 2.198062-2.238994l1.740644 0 60.140729-10.304693-12.758582-24.817222c-8.80248-17.120936-13.080923-35.71134-13.080923-56.834426l-0.046049-1.37123-11.364839-169.251775c0.027629-2.65241 0.227174-5.468548 0.592494-8.380878l0.399089-3.173273-0.588401-3.143597c-0.26913-1.439792-0.405229-2.644223-0.405229-3.579525l0-222.741014c0-11.04352 8.989745-20.027126 20.040429-20.027126l61.905932 0c11.034311 0 20.012799 8.983605 20.012799 20.027126L226.025315 120.15482299999996zM749.394247 193.073576c-45.159526 0-81.898265 36.69269-81.898265 81.795934 0 45.144176 36.738739 81.871659 81.898265 81.871659 45.122687 0 81.832773-36.727483 81.832773-81.871659C831.22702 229.76626599999997 794.516934 193.073576 749.394247 193.073576zM749.394247 315.807898c-22.588461 0-40.966017-18.365276-40.966017-40.939411 0-22.532179 18.377556-40.863686 40.966017-40.863686 22.552645 0 40.900525 18.331507 40.900525 40.863686C790.294772 297.44262200000003 771.946892 315.807898 749.394247 315.807898zM275.335371 193.073576c-45.118594 0-81.824587 36.69269-81.824587 81.795934 0 45.144176 36.705993 81.871659 81.824587 81.871659 45.128827 0 81.843006-36.727483 81.843006-81.871659C357.178377 229.76626599999997 320.464197 193.073576 275.335371 193.073576zM275.335371 315.807898c-22.547529 0-40.892339-18.365276-40.892339-40.939411 0-22.532179 18.34481-40.863686 40.892339-40.863686 22.557762 0 40.910759 18.331507 40.910759 40.863686C316.246129 297.44262200000003 297.893132 315.807898 275.335371 315.807898zM599.783811 220.053044l-172.123172 0c-21.36254 0-38.741349 17.378809-38.741349 38.741349l0 51.27071c0 21.348214 17.378809 38.71679 38.741349 38.71679l172.123172 0c21.354354 0 38.728046-17.368576 38.728046-38.71679l0-51.27071C638.511857 237.43185300000005 621.138164 220.053044 599.783811 220.053044zM429.851537 260.98529199999996l167.728072 0 0 46.864354-167.728072 0L429.851537 260.98529199999996zM672.285055 517.227304l-332.945975 0c-18.894326 0-39.199791 7.016811-55.707766 19.252483-18.770506 13.910824-29.939893 32.400944-31.452339 52.063773l-0.255827 3.323699 10.734482 42.720987 13.896498 71.804373 0.299829 1.359974c3.050476 16.243963 9.996678 23.920806 16.130376 30.699186 1.744737 1.929955 3.550873 3.924379 5.4225 6.291287l6.144954 7.769964 403.207202 0 6.144954-7.942903c1.87265-2.421142 3.620457-4.455475 5.310959-6.421246 6.242168-7.265474 12.69616-14.776542 15.573697-30.508851l14.19121-73.052806 10.694573-42.72508-0.25378-3.309372c-1.50426-19.664875-12.673647-38.157042-31.448246-52.072983C711.462333 524.245138 691.165054 517.227304 672.285055 517.227304zM293.400818 588.976418c3.469008-15.436574 25.842575-30.815843 45.938262-30.815843l332.945975 0c20.094664 0 42.462091 15.382339 45.914726 30.818913l-9.193383 36.730553-14.47262 74.508971c-0.883113 4.875031-1.612731 5.724375-6.364965 11.254322-0.030699 0.035816-0.063445 0.071631-0.094144 0.10847l-364.204909 0c-0.182149-0.201591-0.361227-0.399089-0.535189-0.591471-4.755304-5.256724-5.367241-5.932106-6.288217-10.977006l-0.145309-0.724501-0.316202-1.434675-13.956873-72.14718L293.400818 588.976418z"  horiz-adv-x="1024" />
      
      <glyph glyph-name="lvshijindiao" unicode="&#59117;" d="M714.752 371.2c-39.936 0-76.8-11.776-107.52-32.768-0.512 6.656-3.584 13.312-8.704 17.92-16.384 15.36-34.304 28.16-53.248 39.424C594.944 435.2 624.64 495.616 624.64 561.152c0 116.736-94.72 211.456-211.456 211.456-116.736 0-211.456-94.72-211.456-211.456 0-66.048 29.696-125.952 79.36-165.376-83.456-47.104-138.24-137.216-138.24-235.52l0-146.432c0-15.872 12.8-28.672 28.672-28.672l175.616 0 142.336 0 172.544 0c5.12 0 10.24 1.536 14.336 3.584 12.288-2.56 25.088-3.584 38.4-3.584 106.496 0 193.024 86.528 193.024 193.024C908.288 285.184 821.76 371.2 714.752 371.2zM200.704 160.256c0 93.696 62.976 177.664 152.576 203.776 11.776 3.584 19.968 13.824 20.48 26.112 0.512 12.288-6.656 23.552-17.92 28.16-58.88 23.552-96.768 79.872-96.768 142.848 0 84.992 69.12 154.112 154.112 154.112s154.112-69.12 154.112-154.112c0-62.976-37.888-119.296-96.768-142.848-11.264-4.608-18.432-15.872-17.92-28.16 0.512-12.288 8.704-23.04 20.48-26.112 31.744-9.216 61.44-26.624 86.016-49.152 3.584-3.584 8.192-5.632 12.8-6.656-31.232-34.304-50.176-79.872-50.176-130.048 0-52.736 20.992-100.864 55.808-135.68l-62.976 0-32.768 194.56 22.528 56.832c3.584 8.704 2.56 18.944-3.072 26.624-5.12 7.68-14.336 12.8-24.064 12.8L360.448 333.312c-9.728 0-18.432-4.608-24.064-12.8-5.12-7.68-6.656-17.92-3.072-26.624l22.528-56.832-32.768-194.56L200.704 42.496 200.704 160.256zM381.44 42.496l31.744 187.392c1.536 3.584 2.048 7.68 1.536 11.264 0.512 7.168-2.048 13.824-5.632 18.944l-6.144 15.872 31.744 0-6.144-15.872c-4.096-5.12-6.144-11.776-5.632-18.944 0-4.096 0.512-7.68 1.536-11.264l31.744-187.392L381.44 42.496zM714.752 42.496c-74.752 0-135.68 60.928-135.68 135.68 0 74.752 60.928 135.68 135.68 135.68 74.752 0 135.68-60.928 135.68-135.68C850.432 103.424 789.504 42.496 714.752 42.496zM687.104 248.32l-28.16 0c-5.632-16.384-13.312-27.648-24.064-34.304l0-15.36C661.504 205.312 679.424 221.696 687.104 248.32zM781.824 241.152l-38.4 0 0 8.192-28.16 0 0-8.192-27.136 0 0-18.432 27.136 0 0-8.704-35.328 0 0-8.704-21.504 0c-5.12-15.36-13.312-26.624-25.088-33.792l0-16.384c4.608 1.536 8.704 2.56 12.8 4.096l0-65.536 27.136 0L673.28 179.2c3.072 5.12 6.144 10.752 8.704 16.896l33.28 0 0-9.216-29.696 0 0-17.408 29.696 0 0-10.752-31.744 0 0-17.408 31.744 0 0-11.264-38.4 0 0-17.408 38.4 0 0-18.432 28.16 0 0 18.432 46.592 0 0 17.408-46.592 0 0 11.264 40.448 0 0 17.408-40.448 0L743.424 168.96l14.336 0c16.384-0.512 24.576 7.168 24.064 23.552l0 3.584 8.704 0 0 18.432-8.704 0L781.824 241.152zM757.248 195.072c0-5.632-3.072-8.704-8.704-8.704l-4.608 0 0 9.216 13.312 0L757.248 195.072zM757.248 214.016l-13.312 0 0 8.704 13.312 0L757.248 214.016z"  horiz-adv-x="1024" />
      
      <glyph glyph-name="pingjia2" unicode="&#58909;" d="M511.3 718.6L606 526.9c11-22.3 32.3-37.8 56.9-41.4l211.6-30.7-153.1-149.3c-17.8-17.4-26-42.4-21.7-66.9l36.1-210.7-189.2 99.5c-10.8 5.7-23 8.7-35.2 8.7-12.2 0-24.4-3-35.2-8.7L287 27.9l36 210.7c4.2 24.5-3.9 49.6-21.7 66.9L148.2 454.7l211.6 30.7c24.6 3.6 45.9 19 56.9 41.4l94.6 191.8m0 80.7c-9.1 0-18.3-4.8-23-14.3L371.9 549c-3.7-7.6-10.9-12.8-19.3-14L92.1 497.1c-21-3.1-29.4-28.9-14.2-43.7l188.5-183.7c6-5.9 8.8-14.4 7.4-22.7l-44.5-259.4c-2.8-16.6 10.3-30 25.2-30 3.9 0 8 0.9 11.9 3l233 122.5c3.7 2 7.8 2.9 11.9 2.9 4.1 0 8.2-1 11.9-2.9l233-122.5c3.9-2.1 8-3 11.9-3 14.9 0 28.1 13.4 25.2 30L748.9 247c-1.4 8.3 1.3 16.8 7.4 22.7l188.5 183.7c15.2 14.8 6.8 40.6-14.2 43.7L670.1 535c-8.3 1.2-15.6 6.5-19.3 14L534.3 785c-4.7 9.5-13.8 14.3-23 14.3z"  horiz-adv-x="1024" />
      
      <glyph glyph-name="wode-F" unicode="&#58910;" d="M508.995513 896c-281.106911 0-508.995513-227.888602-508.995513-508.995513s227.888602-508.995513 508.995513-508.995512 508.995513 227.888602 508.995512 508.995512c0 281.121049-227.888602 508.995513-508.995512 508.995513z m0-954.946275c-121.550956 0-231.677791 48.679765-312.113221 127.545792 20.359821 133.568906 124.081795 239.623776 256.5196 263.122402-68.827504 23.159296-118.468706 88.084501-118.468706 164.716604 0 96.044625 77.862175 173.892661 173.892661 173.892661 96.044625 0 173.892661-77.862175 173.892662-173.892661 0-76.632102-49.641201-141.557308-118.468706-164.716604 132.536776-23.512765 236.315305-129.694884 256.562016-263.391039-80.407152-78.710501-190.420877-127.277156-311.816306-127.277155z"  horiz-adv-x="1024" />
      
      <glyph glyph-name="shoujihao" unicode="&#58895;" d="M517.883-57.6c27.927 0 50.683 22.756 50.683 51.717 0 27.927-22.756 50.683-50.683 50.683s-51.717-22.756-51.717-50.683c1.034-28.961 23.79-51.717 51.717-51.717zM759.665 896h-495.33C206.371 896 160 850.489 160 793.6v-819.2c0-56.889 46.371-102.4 104.335-102.4h495.33C817.629-128 864-82.489 864-25.6V793.6C864 850.489 817.629 896 759.665 896z m1.16-972.8H274.682c-27.927 0-50.683 22.756-50.683 51.717V96h588.541v-121.083c-1.034-27.927-23.79-51.717-51.717-51.717zM800 166.917H224v614.4C224 809.244 246.232 832 273.516 832h474.947c27.284 0 49.516-22.756 49.516-50.683v-614.4H800z"  horiz-adv-x="1024" />
      
      <glyph glyph-name="dkw_daikuan" unicode="&#58881;" d="M426.666667 669.226667h170.666666c53.76 0 106.666667 59.306667 106.666667 123.946666a52.266667 52.266667 0 0 1-36.693333 48.64 39.893333 39.893333 0 0 1-45.013334-18.56 51.2 51.2 0 0 0-21.333333-22.613333 70.826667 70.826667 0 0 0-19.413333 15.573333A100.48 100.48 0 0 1 512 853.333333a100.693333 100.693333 0 0 1-70.186667-37.12 72.96 72.96 0 0 0-19.413333-16 46.293333 46.293333 0 0 0-21.333333 21.333334 39.253333 39.253333 0 0 1-45.013334 17.493333A49.92 49.92 0 0 1 320 793.386667c0-64.64 52.906667-124.16 106.666667-124.16z m-59.733334 128a78.72 78.72 0 0 1 50.986667-39.893334 69.12 69.12 0 0 1 53.973333 27.946667A64 64 0 0 0 512 810.666667a64 64 0 0 0 40.32-24.746667 68.693333 68.693333 0 0 1 53.973333-27.946667 78.933333 78.933333 0 0 1 50.773334 39.68c2.133333-1.92 4.266667-1.28 4.266666-4.266666 0-42.666667-36.693333-81.28-64-81.28h-170.666666c-27.306667 0-64 38.186667-64 81.28 0 2.986667 2.346667 2.56 4.266666 4.266666zM655.146667 441.813333a21.333333 21.333333 0 0 1-30.08 0l-113.066667-113.066666-112.853333 112.853333a21.333333 21.333333 0 0 1-30.08 0 16.853333 16.853333 0 0 1 0-26.24l91.52-87.68H384a21.333333 21.333333 0 0 1 0-42.666667h98.773333v-64H384a21.333333 21.333333 0 0 1 0-42.666666h98.773333V85.33333300000004a21.333333 21.333333 0 0 1 42.666667 0v93.226667H640a21.333333 21.333333 0 0 1 0 42.666667h-114.56v64H640a21.333333 21.333333 0 0 1 0 42.666666h-76.586667l91.52 87.68a16.853333 16.853333 0 0 1 0.213334 26.24zM892.586667 353.06666700000005c-34.56 52.266667-172.16 219.306667-194.773334 241.92A91.093333 91.093333 0 0 1 618.666667 626.56H405.333333a91.093333 91.093333 0 0 1-79.146666-31.573333c-22.613333-22.613333-160.213333-187.52-194.773334-240S85.333333 259.626667 85.333333 175.57333300000005c0-104.32 99.626667-253.013333 256-253.013333h341.333334c156.373333 0 256 147.626667 256 251.946667 0 84.053333-11.733333 126.08-46.08 178.56zM682.666667-34.77333299999998H341.333333c-140.16 0-213.333333 134.826667-213.333333 209.28s9.6 111.786667 39.253333 157.013333c32.426667 49.28 167.68 213.333333 189.226667 234.666667 15.146667 15.146667 17.066667 18.133333 48.853333 18.133333h213.333334c32 0 33.92-4.053333 48.853333-18.986667 21.333333-21.333333 156.8-183.893333 189.226667-233.386666 29.653333-45.44 39.253333-81.066667 39.253333-156.373334s-73.173333-210.346667-213.333333-210.346666z"  horiz-adv-x="1024" />
      
      <glyph glyph-name="zhifupingtai-zhifubao" unicode="&#58899;" d="M240.941176 384c0-233.411765 188.235294-421.647059 421.647059-421.647059s421.647059 188.235294 421.647059 421.647059S896 805.647059 662.588235 805.647059 240.941176 617.411765 240.941176 384zM751.435294 331.294118s15.058824 21.082353 30.117647 63.247058c16.564706 42.164706 18.070588 66.258824 18.070588 66.258824l-120.470588 1.505882v40.658824l146.070588 1.505882v30.117647H677.647059v66.258824h-72.282353V534.588235H466.823529v-30.117647l137.035295 1.505883v-45.176471h-108.42353v-24.094118h225.882353c-1.505882-15.058824-6.023529-28.611765-10.541176-42.164706-9.035294-22.588235-18.070588-43.670588-18.070589-43.670588s-105.411765 37.647059-162.635294 37.647059c-55.717647 0-123.482353-22.588235-131.011764-87.341176-6.023529-64.752941 31.623529-100.894118 85.835294-112.941177 52.705882-12.047059 102.4 0 146.070588 21.082353 43.670588 21.082353 85.835294 69.270588 85.835294 69.270588l224.376471-109.929411s13.552941 21.082353 24.094117 40.658823c7.529412 13.552941 13.552941 28.611765 19.576471 42.164706l-233.411765 79.811765z m-231.905882-106.917647c-79.811765 0-94.870588 39.152941-94.870588 66.258823 0 27.105882 16.564706 58.729412 84.329411 63.247059 66.258824 4.517647 158.117647-48.188235 158.117647-48.188235s-67.764706-81.317647-147.57647-81.317647z"  horiz-adv-x="1325" />
      
      <glyph glyph-name="weixin" unicode="&#58935;" d="M1010.8 268c0 141.2-141.3 256.2-299.9 256.2-168 0-300.3-115.1-300.3-256.2 0-141.4 132.3-256.2 300.3-256.2 35.2 0 70.7 8.9 106 17.7l96.8-53-26.6 88.2c70.9 53.2 123.7 123.7 123.7 203.3zM618 307.2c-22.1 0-40 17.9-40 40s17.9 40 40 40 40-17.9 40-40c0-22-17.9-40-40-40z m194.3 0.3c-22.1 0-40 17.9-40 40s17.9 40 40 40 40-17.9 40-40-17.9-40-40-40zM366.3 789.1c-194.1 0-353.1-132.3-353.1-300.3 0-97 52.9-176.6 141.3-238.4l-35.3-106.2 123.4 61.9c44.2-8.7 79.6-17.7 123.7-17.7 11.1 0 22.1 0.5 33 1.4-6.9 23.6-10.9 48.3-10.9 74 0 154.3 132.5 279.5 300.2 279.5 11.5 0 22.8-0.8 34-2.1C692 683.4 539.9 789.1 366.3 789.1zM247.7 546.8c-26.5 0-48 21.5-48 48s21.5 48 48 48 48-21.5 48-48-21.5-48-48-48z m246.6 0c-26.5 0-48 21.5-48 48s21.5 48 48 48 48-21.5 48-48-21.5-48-48-48z"  horiz-adv-x="1024" />
      
      <glyph glyph-name="fangchan-" unicode="&#58912;" d="M913.3-2.2000000000000455H833v449c0 12.9-7.1 24.8-18.5 30.9L615.2 584.4V748c0 19.3-15.7 35-35 35H228.5c-19.3 0-35-15.7-35-35v-750.2H112c-8.3 0-15-6.7-15-15s6.7-15 15-15h801.3c8.3 0 15 6.7 15 15s-6.7 15-15 15zM223.5 748c0 2.8 2.2 5 5 5h351.7c2.8 0 5-2.2 5-5v-748.1H223.5V748z m391.7-197.6l185.2-99.1c1.6-0.9 2.6-2.6 2.6-4.4v-449H615.2V550.4zM283.8 548.1c0-5.5 4.5-10 10-10h60c5.5 0 10 4.5 10 10v60c0 5.5-4.5 10-10 10h-60c-5.5 0-10-4.5-10-10v-60zM444.8 548.1c0-5.5 4.5-10 10-10h60c5.5 0 10 4.5 10 10v60c0 5.5-4.5 10-10 10h-60c-5.5 0-10-4.5-10-10v-60zM665.8 287.20000000000005c0-5.5 4.5-10 10-10h60c5.5 0 10 4.5 10 10v60c0 5.5-4.5 10-10 10h-60c-5.5 0-10-4.5-10-10v-60zM665.8 97.89999999999998c0-5.5 4.5-10 10-10h60c5.5 0 10 4.5 10 10v60c0 5.5-4.5 10-10 10h-60c-5.5 0-10-4.5-10-10v-60zM283.8 347.1c0-5.5 4.5-10 10-10h60c5.5 0 10 4.5 10 10v60c0 5.5-4.5 10-10 10h-60c-5.5 0-10-4.5-10-10v-60zM444.8 347.1c0-5.5 4.5-10 10-10h60c5.5 0 10 4.5 10 10v60c0 5.5-4.5 10-10 10h-60c-5.5 0-10-4.5-10-10v-60zM283.8 145.5c0-5.5 4.5-10 10-10h60c5.5 0 10 4.5 10 10v60c0 5.5-4.5 10-10 10h-60c-5.5 0-10-4.5-10-10v-60zM444.8 145.5c0-5.5 4.5-10 10-10h60c5.5 0 10 4.5 10 10v60c0 5.5-4.5 10-10 10h-60c-5.5 0-10-4.5-10-10v-60z"  horiz-adv-x="1024" />
      
      <glyph glyph-name="duiwaidanbao1" unicode="&#58921;" d="M543.91466632-84.39466700000003a78.848 78.848 0 0 0-24.277333 0C501.88800032-81.53599999999994 85.33333332-8.49066700000003 85.33333332 559.7866670000001V713.472c0 17.002667 7.893333 33.109333 21.824 44.8a74.346667 74.346667 0 0 0 51.733333 16.384c0.981333-0.128 12.16-0.746667 29.397334-0.746667 28.714667 0 85.696 1.664 138.730666 13.376 80.96 17.749333 163.712 96.725333 166.506667 98.389334a76.032 76.032 0 0 0 76.501333 0c22.997333-13.802667 102.122667-83.370667 170.602667-98.389334 53.013333-11.712 109.013333-13.376 137.749333-13.376 17.429333 0 28.416 0.618667 29.397334 0.746667 1.642667 0.149333 3.114667 0.149333 4.757333 0.149333 17.408 0 34.133333-5.909333 46.976-16.533333 13.909333-11.370667 21.866667-27.733333 21.824-44.949333v-153.536c0-568.106667-419.669333-641.322667-437.418667-644.181334zM882.77333332 710.528c-36.586667 0-97.130667 2.410667-156.138667 15.104C629.99466632 746.432 531.75466632 832 531.75466632 832s-94.122667-85.568-190.72-106.368c-59.029333-12.693333-120.533333-15.104-157.12-15.104C162.47466632 710.528 149.33333332 711.424 149.33333332 711.424v-152.704C149.33333332 38.72000000000003 531.75466632-21.33333300000004 531.75466632-21.33333300000004s385.408 60.053333 385.408 580.053333L917.33333332 711.424s-13.312-0.896-34.581333-0.896zM506.17600032 591.36h211.242666v-279.146667h-211.242666V591.36z m169.450666-241.130667v81.877334h-127.210666v-81.877334h127.210666z m-127.210666 119.466667h127.210666v83.648h-127.210666v-83.648z m-83.093334-205.802667H746.66666632v-39.829333H465.32266632V263.893333z m22.272 180.288v-42.048c-18.56-8.512-37.12-16.554667-56.170666-24.170666v-117.653334c0-31.317333-15.317333-46.976-45.504-46.976h-44.096l-10.218667 40.704c13.461333-1.770667 26.453333-2.666667 38.997333-2.666666 12.074667 0 18.56 6.698667 18.56 19.669333v90.816c-19.477333-6.250667-38.976-12.522667-58.944-18.346667L320.00000032 384.256a819.050667 819.050667 0 0 1 69.184 18.773333v97.557334h-60.821334v41.152h60.8V618.666667h42.261334v-76.949334h54.784v-41.173333h-54.784v-82.304a708.394667 708.394667 0 0 1 56.170666 25.941333z"  horiz-adv-x="1068" />
      
      <glyph glyph-name="daichulihetong" unicode="&#58937;" d="M403.285333 71.11111100000005a28.444444 28.444444 0 1 0 0-56.888889H284.444444A142.222222 142.222222 0 0 0 142.222222 156.44444399999998V611.555556A142.222222 142.222222 0 0 0 284.444444 753.777778h455.111112A142.222222 142.222222 0 0 0 881.777778 611.555556v-120.263112a28.444444 28.444444 0 1 0-56.888889 0V611.555556A85.333333 85.333333 0 0 1 739.555556 696.8888890000001H284.444444A85.333333 85.333333 0 0 1 199.111111 611.555556v-455.111112A85.333333 85.333333 0 0 1 284.444444 71.11111100000005h118.840889zM714.296889-17.408000000000015a199.111111 199.111111 0 1 0 0 398.222222 199.111111 199.111111 0 0 0 0-398.222222z m0 56.888889a142.222222 142.222222 0 1 1 0 284.444444 142.222222 142.222222 0 0 1 0-284.444444zM712.248889 268.288a28.444444 28.444444 0 0 0 28.444444-28.444444v-44.487112l19.968-15.985777c11.377778-9.159111 13.198222-25.827556 3.982223-37.205334l-1.194667-1.479111-1.365333-1.422222a28.444444 28.444444 0 0 0-38.684445-2.787556l-29.582222 23.893334a26.396444 26.396444 0 0 0-9.955556 22.016v57.457778a28.444444 28.444444 0 0 0 28.444445 28.444444zM341.048889 570.538667h284.444444a28.444444 28.444444 0 1 0 0-56.888889h-284.444444a28.444444 28.444444 0 0 0 0 56.888889zM341.048889 385.422222h86.869333a28.444444 28.444444 0 0 0 0-56.888889H341.048889a28.444444 28.444444 0 1 0 0 56.888889z"  horiz-adv-x="1024" />
      
      <glyph glyph-name="gengduo" unicode="&#58896;" d="M408 360c44.8 0 80-35.2 80-80v-208c0-44.8-35.2-80-80-80h-208c-44.8 0-80 35.2-80 80v208c0 44.8 35.2 80 80 80h208z m400 0c44.8 0 80-35.2 80-80v-208c0-44.8-35.2-80-80-80h-208c-44.8 0-80 35.2-80 80v208c0 44.8 35.2 80 80 80h208z m-400-32h-208c-27.2 0-48-20.8-48-48v-208c0-27.2 20.8-48 48-48h208c27.2 0 48 20.8 48 48v208c0 27.2-20.8 48-48 48z m400 0h-208c-27.2 0-48-20.8-48-48v-208c0-27.2 20.8-48 48-48h208c27.2 0 48 20.8 48 48v208c0 27.2-20.8 48-48 48z m-398.4 432c43.2 0 78.4-35.2 78.4-78.4v-211.2c0-43.2-35.2-78.4-78.4-78.4H198.4c-43.2 0-78.4 35.2-78.4 78.4V681.6c0 43.2 35.2 78.4 78.4 78.4h211.2z m0-32H198.4c-25.6 0-46.4-20.8-46.4-46.4v-211.2c0-25.6 20.8-46.4 46.4-46.4h211.2c25.6 0 46.4 20.8 46.4 46.4V681.6c0 25.6-20.8 46.4-46.4 46.4zM752 752l112-112c30.4-30.4 30.4-81.6 0-112l-112-112c-30.4-30.4-81.6-30.4-112 0l-112 112c-30.4 30.4-30.4 81.6 0 112l112 112c30.4 32 81.6 32 112 0z m-22.4-22.4c-19.2 19.2-48 19.2-67.2 0l-112-112c-19.2-19.2-19.2-48 0-67.2l112-112c19.2-19.2 48-19.2 67.2 0l112 112c19.2 19.2 19.2 48 0 67.2l-112 112z"  horiz-adv-x="1024" />
      
      <glyph glyph-name="xingshifanzui" unicode="&#58913;" d="M517.510517 894.009869a29.896442 29.896442 0 0 1-21.450698 0c-137.673115-59.792884-275.122007-120.183697-410.104442-179.378652 0-121.08059-7.47411-239.171536 1.569563-356.216106 16.667266-217.79558 192.607827-424.604217 400.911287-483.500208a67.266994 67.266994 0 0 1 37.370552 0c225.643396 73.545247 360.102643 231.697425 398.220607 461.750546 20.329581 122.650153 12.1828 249.934255 16.816749 374.07923C796.070615 773.228243 656.902677 833.91802 517.510517 894.009869z m337.979276-547.553335c-29.896442-195.821695-138.495267-335.139114-330.280943-401.509216a57.774874 57.774874 0 0 0-35.20306 0C299.864419 10.420525999999995 195.824801 149.14001699999994 159.949071 341.59836199999995c-10.538496 56.504275-7.100405 261.593867-7.474111 305.915343 0 13.827104 3.064385 21.973885 16.966231 28.177396C277.442088 723.973855 385.218761 773.975654 493.518622 822.40789a39.687527 39.687527 0 0 0 29.149031-0.67267q162.561903-72.573613 324.152172-147.165235c7.100405-3.288609 15.994596-13.004952 15.919855-19.731652-0.822152-102.769019 7.997298-207.406566-7.249887-308.381799zM655.856302 621.429059c-95.070685 72.274648-222.57901 66.594324-314.585311-15.695632C258.308365 531.51551 240.071535 395.112993 300.61183 295.931547a237.676714 237.676714 0 0 1 127.059878-103.292207c79.674018-28.252138 153.294006-12.407023 229.30571 35.053578 12.257541-15.919855 24.141377-31.466005 35.203061-45.965779l59.792884 58.597026-46.563709 39.23908c88.418727 139.466902 33.035568 279.008545-49.553352 341.865814z m-7.474111-279.681215L607.947254 380.16477199999997l-51.870327-59.792884c8.371004-8.968933 21.00225-22.422331 33.782979-35.800989-60.241331-40.958125-153.069783-28.326879-200.306161 26.084646-58.223321 66.669066-59.792884 161.366046-3.064385 225.94236a165.02836 165.02836 0 0 0 211.367844 27.131021c71.452496-48.581718 93.501122-139.915348 50.67447-221.981082z"  horiz-adv-x="1024" />
      
      <glyph glyph-name="duilvshi" unicode="&#58886;" d="M510.578012-52.13295800000003c-242.927095 0-440.568694 197.634404-440.568694 440.563098 0 242.927695 197.641599 440.571692 440.568694 440.571692 242.928694 0 440.571093-197.641599 440.571093-440.571692C951.149105 145.501446 753.506706-52.13295800000003 510.578012-52.13295800000003zM510.578012 800.574706c-227.258319 0-412.143966-184.885648-412.143966-412.144566 0-227.25732 184.885648-412.144566 412.143966-412.144566 227.260318 0 412.144566 184.887246 412.144566 412.144566C922.722578 615.689059 737.83833 800.574706 510.578012 800.574706zM510.578012-59.243337c-246.847437 0-447.673477 200.824441-447.673477 447.673477 0 246.848037 200.82584 447.676275 447.673477 447.676275 246.849036 0 447.676275-200.82584 447.676275-447.676275C958.254288 141.58110399999998 757.427048-59.243337 510.578012-59.243337zM510.578012 821.895651c-239.013349 0-433.462512-194.452161-433.462512-433.46551 0-239.010351 194.449163-433.458915 433.462512-433.458915 239.01135 0 433.466909 194.448564 433.466909 433.458915C944.044922 627.443489 749.594359 821.895651 510.578012 821.895651zM510.578012-30.818609000000038c-231.178661 0-419.250148 188.076084-419.250148 419.248749 0 231.181659 188.071488 419.251747 419.250148 419.251747 231.183657 0 419.249549-188.072487 419.249549-419.251747C929.827561 157.257475 741.76167-30.818609000000038 510.578012-30.818609000000038zM510.578012 793.469524c-223.336578 0-405.039383-181.702406-405.039383-405.039383s181.702805-405.039383 405.039383-405.039383c223.336978 0 405.039383 181.702406 405.039383 405.039383S733.91499 793.469524 510.578012 793.469524zM468.928251 171.14106200000003c0.284407 2.472324 0.541633 4.948645 0.854421 7.417971 0.887798 6.995257 1.78419 13.993512 2.705566 20.977777 0.647161 4.916667 1.345488 9.827337 2.019231 14.738008 0.757886 5.527253 1.557944 11.043512 2.261467 16.574762 0.569014 4.466971 0.983733 8.953929 1.531961 13.4219 0.530041 4.304082 1.160213 8.59817 1.718835 12.899254 0.544631 4.23313 1.085864 8.461263 1.569936 12.69939 0.653957 5.70813 1.270139 11.420257 1.870132 17.134383 0.344766 3.243801 0.630572 6.499593 0.938364 9.750389 0.484272 5.106538 1.093658 10.203082 1.425633 15.323611 0.349763 5.455301-1.656477 10.499881-3.145467 15.616412-0.969942 3.335738-2.033621 6.643496-2.825484 10.018208-0.616182 2.633215-0.219251 4.963635 3.825406 4.919664 14.258333-0.157893 28.523661-0.061958 42.782993-0.061958 2.769123 0 3.426677-0.754488 2.701169-3.387703-1.654878-6.023916-3.45066-12.003861-5.087551-18.031774-1.693852-6.246765-1.78479-12.541497-0.67854-18.932164 1.042293-6.027913 1.832757-12.103794 2.527286-18.178675 0.895393-7.955606 1.526965-15.940193 2.380386-23.895799 0.709519-6.635501 1.513974-13.258011 2.396375-19.868529 0.662551-4.982622 1.617903-9.927269 2.270461-14.908892 0.615583-4.702811 1.00232-9.426609 1.48999-14.142411 0.624577-6.108858 1.258147-12.21272 1.868733-18.315582 0.33977-3.408689 0.621579-6.81438 0.974339-10.218072 0.286806-2.777117 0.492666-5.578218 1.030301-8.308367 0.216853-1.078269 1.243157-1.99165 2.258469-3.523611 1.260146 4.692818 2.325423 8.692107 3.413686 12.677405 2.824085 10.335992 5.706131 20.657994 8.485247 31.009975 3.516616 13.105115 6.938296 26.240209 10.417937 39.359115 3.183841 11.997865 6.394664 23.991734 9.584502 35.990598 5.340379 20.120358 10.680758 40.241516 15.997154 60.372867 0.691531 2.604234 1.292124 5.234451 1.868733 7.864668 0.806453 3.681504 5.011602 5.871019 9.083841 4.349051 6.433638-2.402371 12.760348-5.097544 19.156012-7.602845 13.363939-5.231453 26.792635-10.311009 40.104609-15.674373 10.10315-4.07024 20.225287-8.151473 30.034637-12.866277 7.467937-3.594563 14.392242-8.31836 20.228285-14.333282 4.855708-5.00061 8.869986-10.646781 10.477896-17.562093 0.782469-3.374712 0.955352-6.906318 1.284129-10.374966 0.673543-7.05022 1.255149-14.102439 1.894715-21.156656 0.45669-5.031589 0.887398-10.066175 1.449018-15.091768 0.529641-4.695816 1.276135-9.364651 1.81377-14.059468 0.297798-2.558265 0.378743-5.139515 0.524644-7.707774 0.331775-5.536246 0.506656-11.086483 0.989329-16.603743 0.64956-7.425965 1.735823-14.817953 2.234485-22.248915 0.270816-4.02727-1.331098-7.793716-3.905352-10.910603-3.068919-3.71648-6.781402-6.6375-11.672086-7.660806-0.898391-0.184875-1.819766-0.409722-2.730149-0.409722-138.204897-0.017988-276.411793-0.051965-414.617889 0.057961-9.54253 0.009993-15.151727 5.230454-17.901863 15.305623-1.54895 5.674153-0.927771 11.349305 0.502659 16.999474 0.528642 2.084587 0.697127 4.276101 0.852422 6.433638 0.378144 5.291412 0.498062 10.608807 1.012314 15.891226 0.600593 6.166819 1.570535 12.299661 2.262066 18.46548 0.580606 5.173492 0.974739 10.369969 1.483994 15.558451 0.757886 7.731758 1.538357 15.458519 2.316429 23.18528 0.319783 3.173848 0.828438 6.332706 0.952354 9.511551 0.263821 6.824373 3.103896 12.446561 7.398384 17.591073 7.769133 9.311687 17.159366 16.494817 28.18589 21.40049 8.032554 3.575576 16.301947 6.625508 24.459816 9.923272 9.160189 3.703489 18.312584 7.424966 27.471774 11.129454 9.735399 3.930335 19.474196 7.851677 29.212594 11.77002 1.217774 0.490667 2.444343 0.962348 3.686501 1.384062 3.695095 1.257148 7.475931-0.556623 8.565593-4.413008 2.765125-9.791361 5.385948-19.628692 8.02356-29.45403 3.258791-12.137771 6.49-24.283536 9.708418-36.434298 5.468292-20.646002 10.92859-41.297001 16.370901-61.947799 4.91207-18.641361 9.772374-37.297712 14.738008-55.922884 0.351362-1.321104 1.392656-2.454336 2.113167-3.675508C468.389216 171.03113699999994 468.660432 171.08909800000004 468.928251 171.14106200000003zM607.703961 532.217852c-1.237161 6.591931-2.487314 13.206046-4.238127 19.671663-2.673188 9.846724-7.324034 18.825636-12.670409 27.514745-6.791395 11.039515-14.952862 20.87085-25.041022 28.941378-10.542852 8.431683-22.259908 14.916886-35.498932 18.032174-7.65481 1.79918-15.467513 3.061524-23.279217 4.040261-6.301727 0.789465-12.533902-0.731904-18.772272-1.74082-8.523621-1.377066-16.905938-3.252195-24.485799-7.421968-6.82837-3.757452-13.700711-7.642818-19.834552-12.400992-5.949966-4.61587-11.375288-10.076168-16.305345-15.791294-4.314475-5.002009-7.871063-10.72213-11.321724-16.394285-4.956639-8.147476-9.126212-16.723062-11.261365-26.102702-1.403049-6.167818-2.550271-12.393997-3.764048-18.606385-0.976338-5.001009-2.283852-9.983631-2.693774-15.035806-0.32478-4.018276 0.421714-8.135884 0.802456-12.19713 0.583604-6.187205 0.789864-12.461951 2.001043-18.527838 2.225091-11.141446 5.567225-22.022069 10.50188-32.287509 2.911426-6.060891 6.484603-11.800399 9.715813-17.708394 6.931301-12.681402 16.141456-23.410528 27.452387-32.383044 10.910603-8.655132 22.819528-15.404955 36.525236-18.376541 5.961358-1.293523 12.08021-2.125959 18.164085-2.49271 7.251084-0.437304 14.298306 1.290725 21.314549 3.132476 15.673373 4.11561 29.090277 12.189136 40.744375 23.202669 4.92566 4.653845 9.443597 9.804752 13.700711 15.08917 9.359654 11.612527 16.099085 24.759613 21.147662 38.727743 3.685501 10.193089 6.185806 20.712957 7.177134 31.561002 0.644563 7.047222 1.513974 14.07086 2.349407 21.69669C609.379824 521.344225 608.72227 526.8135159999999 607.703961 532.217852z"  horiz-adv-x="1024" />
      
      <glyph glyph-name="servicenum" unicode="&#58932;" d="M18.425 234.527v39.558h1.084c6.864 87.245 63.040 162.026 143.602 202.849-26.914 28.54-43.352 65.208-43.352 105.489 0 85.619 73.698 155.704 167.265 162.749-12.464-13.367-23.301-27.637-32.514-42.99-54.912-17.521-94.29-64.485-94.29-119.578 0-42.99 24.024-81.104 60.512-104.044-10.477-9.212-20.231-18.786-29.624-28.901-72.794-33.417-124.274-98.805-131.319-175.393h-1.084v-34.139c0-34.862 18.424-66.111 47.325-86.522 3.613-17.883 8.851-35.223 15.354-52.022-59.97 19.869-102.96 71.891-102.96 132.945zM849.872 140.96c0-96.818-87.606-175.213-195.805-175.213h-297.861c-108.198 0-195.805 78.394-195.805 175.213v60.692h0.542c7.045 107.656 75.685 200.501 175.032 250.536l2.168 16.257c-34.862 35.223-55.996 81.465-55.996 132.222 0 110.185 99.889 199.598 223.080 199.598 123.191 0 223.080-89.413 223.080-199.598 0-50.938-21.315-97.36-56.357-132.584l-0.723-14.27c100.973-49.674 171.058-143.421 178.103-252.162h0.542v-60.692zM991.848 234.527c0-61.053-42.99-113.075-103.141-133.125 6.503 16.799 11.56 34.139 15.354 52.022 28.901 20.411 47.325 51.48 47.325 86.522v34.139h-1.084c-7.045 76.588-58.525 141.976-131.319 175.393-9.212 10.115-19.147 19.689-29.624 28.901 36.668 22.94 60.512 61.053 60.512 104.044 0 55.093-39.378 102.057-94.29 119.578-9.212 15.354-20.050 29.804-32.514 42.99 93.748-6.864 167.265-77.13 167.265-162.749 0-40.281-16.437-76.949-43.352-105.489 80.562-40.823 136.738-115.604 143.783-202.849h1.084v-39.378z"  horiz-adv-x="1024" />
      
      <glyph glyph-name="renzheng" unicode="&#58943;" d="M511.953455-106.146909c-142.987636 0-408.901818 218.763636-408.901818 425.634909L103.051636 731.578182l40.657455 0.674909c0.861091 0 91.624727 1.931636 185.274182 39.936 96.046545 39.028364 157.998545 83.828364 158.580364 84.247273l24.273455 17.687273 24.482909-17.687273c0.581818-0.442182 62.533818-45.218909 158.580364-84.247273 93.649455-38.004364 184.413091-39.936 185.367273-39.936l40.471273-0.674909 0.186182-412.090182C920.948364 112.64 655.034182-106.146909 511.953455-106.146909L511.953455-106.146909zM185.623273 652.590545l0-333.079273c0-159.953455 231.633455-343.063273 326.330182-343.063273 94.72 0 326.330182 183.109818 326.330182 343.063273L838.283636 652.590545c-40.471273 4.375273-106.170182 15.429818-174.405818 43.124364-69.934545 28.439273-123.042909 59.345455-151.947636 77.754182-28.811636-18.408727-81.989818-49.314909-151.854545-77.754182C291.793455 667.997091 226.071273 656.965818 185.623273 652.590545L185.623273 652.590545zM490.077091 164.654545l-173.614545 147.898182 53.387636 62.813091 111.383273-94.813091 211.386182 243.525818 62.417455-54.155636L490.077091 164.654545 490.077091 164.654545zM490.077091 164.654545"  horiz-adv-x="1024" />
      
      <glyph glyph-name="pingjia" unicode="&#58974;" d="M737.38752-61.44c-13.35808 0-25.728 3.46112-37.61152 9.89696l-181.09952 99.48672a13.86496 13.86496 0 0 1-13.85472 0l-181.10464-99.48672c-11.87328-6.43584-24.74496-9.89696-37.6064-9.89696-23.25504 0-45.0304 10.3936-60.36992 28.70272-15.83616 18.31424-22.26176 43.06432-18.30912 67.80928l34.64192 210.8416c0.98816 5.93408-0.99328 12.37504-4.95104 16.82432l-146.95936 148.48c-21.76512 22.272-29.18912 54.9376-19.29216 85.13024 9.89184 29.20448 34.13504 49.99168 63.82592 54.9376l202.38336 30.68416c4.9408 0.98816 9.40032 4.4544 11.87328 9.40544l91.04384 191.5392C453.36576 811.6224 481.07008 829.44 512.25088 829.44c31.17056 0 58.38336-17.8176 72.23808-46.52544l90.55232-191.5392c2.47296-4.95104 6.93248-8.41728 11.8784-9.40544l202.37312-30.68416c29.68576-4.4544 54.4256-25.73312 63.83104-54.9376 9.90208-30.18752 2.47296-62.85824-19.29728-85.13024l-146.4576-149.46304c-3.95776-3.95776-5.94432-10.39872-4.95616-16.83456l34.64192-210.83648c3.95264-24.25344-2.47296-49.00352-18.30912-67.80416-15.83616-17.32608-38.10304-27.71968-61.35808-27.71968z m-225.6384 175.20128c13.35808 0 26.22464-3.46624 37.61152-9.89696l181.09952-99.4816c2.46784-1.47968 4.4544-1.98144 6.93248-1.98144 3.95776 0 8.40704 1.98144 11.38176 5.9392 2.47296 2.9696 5.44256 7.91552 3.95264 15.34464l-34.6368 210.8416c-4.45952 26.22976 3.95776 53.4528 22.7584 72.25856L887.808 456.25856c7.424 7.424 4.95616 16.82944 4.4544 19.79904-0.98304 2.9696-4.4544 10.3936-12.87168 11.38176l-202.37312 30.68928a79.42144 79.42144 0 0 0-60.36992 45.53728l-90.55232 192.03072c-3.95776 8.41728-10.38848 9.40544-13.8496 9.40544-3.46624 0-9.89696-1.4848-13.85984-9.40544L407.3472 564.15744a79.42656 79.42656 0 0 0-60.36992-45.53216L144.59904 487.936c-8.41216-1.4848-11.87328-8.41216-12.86144-11.38176-0.98816-2.47296-3.46624-12.37504 4.4544-19.79904l146.46272-149.46304c18.30912-18.816 26.7264-45.53728 22.76352-72.26368l-34.6368-210.8416a18.60096 18.60096 0 0 1 3.96288-15.84128c2.9696-3.46624 7.41888-5.9392 11.38176-5.9392 2.47296 0 4.44928 0.50176 6.92736 1.98144l181.10976 99.4816a77.58848 77.58848 0 0 0 37.58592 9.89184z"  horiz-adv-x="1024" />
      
      <glyph glyph-name="guanliyuanrenzheng" unicode="&#60108;" d="M755.2 115.20000000000005L896 256l59.733333-59.733333-200.533333-200.533334-119.466667 119.466667 59.733334 59.733333 59.733333-59.733333zM597.333333 128v-85.333333H256v170.666666h4.266667l85.333333 85.333334h375.466667l85.333333-85.333334h-426.666667l-38.4-38.4V128h256z m213.333334 81.066667z m-85.333334 324.266666c0-106.666667-85.333333-192-192-192S341.333333 426.666667 341.333333 533.333333 426.666667 725.333333 533.333333 725.333333 725.333333 640 725.333333 533.333333z m-85.333333 0C640 593.066667 593.066667 640 533.333333 640S426.666667 593.066667 426.666667 533.333333s46.933333-106.666667 106.666666-106.666666S640 473.6 640 533.333333z"  horiz-adv-x="1024" />
      
      <glyph glyph-name="tongzhi" unicode="&#58887;" d="M441.77831 886.528a37.632 37.632 0 0 0 41.216 4.779 40.448 40.448 0 0 0 21.93-36.438v-925.696a40.619 40.619 0 0 0-22.954-36.949 37.205 37.205 0 0 0-41.643 6.656c-0.512 0.512-51.2 47.36-107.69 95.232-97.024 82.347-127.062 96.853-133.376 99.243H31.92131a32.597 32.597 0 0 0-31.914 33.28V657.323c0 18.346 14.336 33.28 31.915 33.28h141.824c6.485 2.304 38.4 16.298 147.712 100.181a4605.099 4605.099 0 0 1 120.32 95.744zM85.34131 605.269v-426.666h129.365l14.592-5.462c28.245-10.666 75.35-43.434 158.464-114.005 10.581-8.875 21.333-18.09 31.744-27.307V759.04c-15.616-12.288-31.573-24.747-46.08-35.925-92.672-70.998-143.36-103.254-171.861-113.067l-13.483-4.608H85.34131z m736.768-212.992a294.4 294.4 0 0 0-144.811-255.573 59.819 59.819 0 0 0-17.493-5.632c-2.304-0.256-2.304-0.256-4.78-0.256a45.568 45.568 0 0 0-44.884 46.165c0 16.214 8.106 31.062 21.845 39.766a200.875 200.875 0 0 1 100.096 175.445c0 72.704-37.547 138.41-97.11 173.653a46.677 46.677 0 0 0-22.186 40.107c0 25.515 19.968 46.336 44.885 46.336 7.68 0 17.067-3.413 24.747-7.68 85.845-52.053 139.69-147.37 139.69-252.33zM753.15931 823.04c9.216 0 16.64-2.901 25.77-8.619 143.105-87.381 232.79-246.698 232.79-422.314 0-175.787-90.112-335.446-233.642-422.742a45.91 45.91 0 0 0-25.6-8.448 45.397 45.397 0 0 0-44.715 46.08c0 17.494 10.496 32.939 25.259 41.387 116.565 70.827 189.696 200.619 189.696 343.723 0 143.36-73.302 273.066-189.611 343.808a46.933 46.933 0 0 0-24.661 40.96c0 25.429 19.882 46.08 44.714 46.08z"  horiz-adv-x="1024" />
      
      <glyph glyph-name="hunyinchaxun" unicode="&#58885;" d="M1010.218667 167.626667l-2.176 0.725333a62.88 62.88 0 0 1-21.493334 32.298667 151.189333 151.189333 0 0 1-35.157333 20.074666l-41.674667 14.4a354.549333 354.549333 0 0 0-39.498666 13.653334 100.832 100.832 0 0 0-31.52 19.36 65.621333 65.621333 0 0 0-22.229334 45.952 91.434667 91.434667 0 0 0 0 22.986666 45.216 45.216 0 0 0 11.477334 27.328l22.229333 19.349334c4.469333 4.362667 8.213333 9.44 10.741333 15.125333 3.509333 6.293333 6.528 12.821333 9.301334 19.349333l7.125333 24.426667c4.586667 1.813333 8.704 4.48 12.202667 7.861333a51.456 51.456 0 0 1 10.752 15.125334c3.509333 8.213333 5.44 16.928 5.802666 25.877333 0.96 6.890667 0.96 13.909333 0 20.8a54.613333 54.613333 0 0 1-4.352 13.664 25.877333 25.877333 0 0 1-7.125333 10.048 527.466667 527.466667 0 0 1 0 61.802667 382.154667 382.154667 0 0 1-12.202667 56 165.973333 165.973333 0 0 1-27.306666 53.930666 106.741333 106.741333 0 0 1-21.493334 21.536 163.242667 163.242667 0 0 1-35.146666 19.349334 201.045333 201.045333 0 0 1-38.048 13.664 172.416 172.416 0 0 1-41.674667 5.077333A260.192 260.192 0 0 1 701.834667 768c-5.674667 0-11.232-0.245333-16.906667-0.608-12.074667-1.813333-23.914667-5.194667-35.146667-10.026667a158.261333 158.261333 0 0 1-34.432-20.810666 138.826667 138.826667 0 0 1-32.245333-34.474667 163.306667 163.306667 0 0 1-22.229333-50.304 377.482667 377.482667 0 0 1-10.752-53.226667 389.674667 389.674667 0 0 1 0-58.165333c-4.106667-4.597333-7.253333-10.037333-9.301334-15.850667a71.445333 71.445333 0 0 1-10.026666-21.525333 56.021333 56.021333 0 0 1 0-23.701333 57.472 57.472 0 0 1 18.005333-30.965334c3.018667-2.293333 6.4-3.989333 10.026667-5.077333l7.125333-24.426667c1.44-6.773333 3.861333-13.312 7.125333-19.36 2.176-5.92 5.674667-11.242667 10.026667-15.84l22.218667-20.8a43.253333 43.253333 0 0 0 11.477333-28.053333v-22.261333c1.205333-6.410667 1.205333-12.938667 0-19.349334a66.293333 66.293333 0 0 0-11.477333-18.752 109.578667 109.578667 0 0 0-22.944-19.349333 151.914667 151.914667 0 0 0-44.458667-20.074667l-30.186667-7.146666-37.333333 12.224a263.125333 263.125333 0 0 0-36.597333 12.938666 71.893333 71.893333 0 0 0-53.152 76.202667l71.754666 12.213333a228.117333 228.117333 0 0 1 20.778667 38.090667 402.581333 402.581333 0 0 1 15.818667 43.786667c5.44 18.752 8.576 37.973333 9.301333 57.450666a291.605333 291.605333 0 0 1 0 50.314667 387.733333 387.733333 0 0 1-12.202667 61.077333 422.698667 422.698667 0 0 1-22.218666 62.528 235.914667 235.914667 0 0 1-34.432 56 172.192 172.192 0 0 1-48.8 40.266667 132.341333 132.341333 0 0 1-61.365334 15.125333H285.226667a160.426667 160.426667 0 0 1-55.317334-10.048 164.832 164.832 0 0 1-71.754666-44.501333 206.709333 206.709333 0 0 1-41.674667-68.213333 305.088 305.088 0 0 1-21.504-79.829334v-78.368c-0.48-24.192 1.813333-48.256 7.125333-71.84 3.509333-15.242667 8.821333-29.866667 15.829334-43.786666a79.456 79.456 0 0 1 22.954666-28.053334l62.442667-10.037333c0.48-6.176 0.48-12.458667 0-18.624a46.773333 46.773333 0 0 0-4.341333-16.576 67.136 67.136 0 0 0-11.477334-15.84 129.354667 129.354667 0 0 0-20.778666-17.301333 136.298667 136.298667 0 0 0-43.733334-19.349334c-16.064-4.234667-31.882667-9.184-47.349333-15.114666a143.84 143.84 0 0 1-40.938667-22.976 65.258667 65.258667 0 0 1-21.504-43.178667c-3.381333-26.485333-3.381333-53.333333 0-79.829333a71.904 71.904 0 0 1 11.477334-37.365334c11.594667-6.293333 24.277333-10.773333 37.322666-12.949333 20.053333-5.077333 44.448-9.312 71.744-14.389333 27.306667-5.077333 55.328-8.586667 83.946667-11.488 28.757333-2.901333 42.410667-5.077333 64.64-6.410667h48.789333l58.826667 5.802667 61.728 8.586666 48.554667 5.418667h16.554666l31.893334-7.466667 58.816-6.410666 60.64-3.146667v0.117333c0.362667 0 0.725333-0.245333 1.205333-0.245333 11.114667 0 20.053333 8.96 20.053333 20.085333 0 10.634667-8.330667 19.221333-18.848 19.84v0.234667l-59.424 3.146667-57.621333 6.293333-31.285333 7.466667a41.034667 41.034667 0 0 1-5.44 0.362666h-16.533334c-2.421333 0-4.714667-0.245333-7.136-0.608l-47.712-5.173333-60.16-8.341333-56.042666-5.44h-45.546667a646.826667 646.826667 0 0 0-34.666667 3.381333c-7.84 0.853333-16.426667 1.813333-27.168 2.901333-30.688 3.018667-57.141333 6.656-80.693333 11.008l-9.301333 1.696c-23.306667 4.224-43.36 7.978667-59.914667 12.085334a26.677333 26.677333 0 0 1-3.018667 0.608 81.12 81.12 0 0 0-14.133333 3.754666 33.354667 33.354667 0 0 0-1.205333 7.733334c0 1.333333-0.117333 2.784-0.362667 4.117333a280.106667 280.106667 0 0 0 0 69.653333c0.117333 0.490667 0.117333 1.098667 0.117333 1.578667 0.490667 6.176 3.264 11.733333 7.616 15.968a102.314667 102.314667 0 0 0 28.992 15.968 416.768 416.768 0 0 0 42.752 13.653333 175.733333 175.733333 0 0 1 56.298667 24.928c9.898667 6.528 19.2 14.272 27.296 22.613334a106.048 106.048 0 0 1 18.474667 25.397333l0.725333 1.450667a85.013333 85.013333 0 0 1 7.978667 30.72c0.597333 8.106667 0.597333 16.448 0 24.554666a40.117333 40.117333 0 0 1-33.706667 36.768l-50.602667 8.106667a38.4 38.4 0 0 0-5.322666 8.213333 159.392 159.392 0 0 0-12.554667 34.72 258.368 258.368 0 0 0-6.165333 63.008v75.712a259.882667 259.882667 0 0 0 18.357333 66.645334l0.725333 1.813333a163.178667 163.178667 0 0 0 33.098667 54.538667 126.037333 126.037333 0 0 0 54.24 33.749333c0.725333 0.234667 1.568 0.48 2.293333 0.725333a117.6 117.6 0 0 0 41.184 7.498667h34.186667c14.741333 0 29.6-3.626667 41.92-10.165333 14.250667-7.861333 26.816-18.133333 37.077333-30.592a206.741333 206.741333 0 0 0 28.874667-46.933334c8.213333-18.133333 14.976-37.248 20.288-56.96a357.184 357.184 0 0 0 10.88-54.304 251.946667 251.946667 0 0 0 0-42.698666c0-0.725333-0.128-1.322667-0.128-2.048a199.296 199.296 0 0 0-7.733333-47.658667 346.026667 346.026667 0 0 0-14.133334-39.306667c-2.528-5.92-5.44-11.733333-8.576-17.418666l-53.866666-9.184a40.298667 40.298667 0 0 1-33.344-35.925334 111.637333 111.637333 0 0 1 79.722666-117.92c12.448-5.322667 25.365333-9.792 38.410667-13.429333l36.48-11.968c4.106667-1.333333 8.213333-1.941333 12.448-1.941333 3.136 0 6.282667 0.362667 9.301333 1.098666l30.186667 7.125334c0.373333 0.128 0.853333 0.245333 1.216 0.373333a192.48 192.48 0 0 1 55.573333 25.034667 156.757333 156.757333 0 0 1 31.52 26.72 105.824 105.824 0 0 1 18.602667 30.357333c0.96 2.421333 1.685333 4.842667 2.165333 7.381333a91.456 91.456 0 0 1 0.725334 30.357334V335.989333a82.922667 82.922667 0 0 1-22.218667 54.186667c-0.608 0.714667-1.333333 1.322667-2.058667 2.048l-21.258666 19.946667a5.717333 5.717333 0 0 0-0.853334 1.461333 40.64 40.64 0 0 1-2.410666 5.205333 31.157333 31.157333 0 0 0-3.136 8.458667l-0.725334 2.901333-7.125333 24.426667a40.245333 40.245333 0 0 1-24.16 26.250667 16.448 16.448 0 0 0-3.018667 6.773333 18.762667 18.762667 0 0 0-0.245333 5.802667c0.96 2.912 2.293333 5.685333 3.989333 8.224 1.930667 2.784 3.498667 5.930667 4.714667 9.066666a7.786667 7.786667 0 0 0 1.813333 3.029334c7.125333 8.106667 10.624 18.752 9.898667 29.514666a344.416 344.416 0 0 0-0.117333 51.157334c2.048 15.605333 5.194667 31.2 9.418666 46.325333 0.117333 0.362667 0.245333 0.608 0.245334 0.96 3.381333 13.546667 9.056 26.250667 16.906666 37.973333a98.453333 98.453333 0 0 0 22.954667 24.565334c0.234667 0.234667 0.48 0.362667 0.842667 0.597333 7.850667 6.293333 16.426667 11.488 25.248 15.36a102.538667 102.538667 0 0 0 23.914666 7.018667 209.504 209.504 0 0 0 26.208-0.117334c0.96-0.128 2.058667-0.128 3.018667-0.128 10.752 0 21.621333-1.333333 31.893333-3.872 10.506667-2.666667 20.650667-6.293333 30.442667-10.88 0.725333-0.362667 1.450667-0.608 2.176-0.96a125.013333 125.013333 0 0 0 26.090667-14.282666c5.194667-3.872 9.781333-8.458667 13.76-13.909334a124.288 124.288 0 0 0 20.661333-40.874666c4.714667-15.84 8.330667-32.170667 10.634667-48.501334 0.96-18.378667 0.96-37.013333-0.128-55.509333a40.608 40.608 0 0 1 11.36-30.485333c0.234667-0.725333 0.48-1.322667 0.48-1.450667 0.48-3.018667 0.48-6.048 0-9.184a27.946667 27.946667 0 0 1-0.362667-4.48c-0.117333-3.626667-0.853333-7.253333-2.176-10.645333a10.517333 10.517333 0 0 0-1.813333-2.421334 40.106667 40.106667 0 0 1-23.072-25.76l-6.517334-22.250666c-1.930667-4.586667-4.224-9.194667-6.645333-13.546667-0.48-0.853333-0.96-1.696-1.322667-2.666667a10.378667 10.378667 0 0 0-1.578666-2.410666l-21.258667-18.506667a31.989333 31.989333 0 0 1-3.498667-3.509333 85.813333 85.813333 0 0 1-21.621333-50.314667 127.605333 127.605333 0 0 1 0-30.357333c1.813333-27.936 14.730667-54.421333 35.392-72.437334a142.976 142.976 0 0 1 43.488-26.858666c13.76-5.674667 28.138667-10.634667 42.389333-14.752l39.498667-13.664c8.821333-3.626667 17.152-8.469333 24.288-14.026667 3.733333-3.029333 6.517333-7.146667 7.850667-11.733333 0.597333-2.058667 1.322667-3.989333 2.165333-5.802667a370.442667 370.442667 0 0 0-1.322667-80.917333c0-0.48-0.117333-0.96-0.117333-1.333334a389.44 389.44 0 0 0-35.52-8.586666l-54.357333-8.341334-60.757334-6.293333-151.36-2.901333h-0.352l-3.264-0.234667 0.128-0.373333c-9.429333-1.685333-16.672-9.546667-16.672-19.466667 0-11.125333 8.938667-20.074667 20.053334-20.074667 1.088 0 1.92 0.48 2.890666 0.597334v-0.362667l151.957334 2.784 62.453333 6.410667 55.925333 8.586666a453.952 453.952 0 0 1 41.674667 10.037334 42.197333 42.197333 0 0 1 20.053333 10.773333 69.429333 69.429333 0 0 1 7.125334 24.426667c4.714667 34.346667 4.714667 68.330667 0.48 101.952z"  horiz-adv-x="1024" />
      
    </font>
</defs>
</svg>
